<?xml version="1.0" encoding="UTF-8"?>
<svg id="Capa_1" xmlns="http://www.w3.org/2000/svg" xmlns:xlink="http://www.w3.org/1999/xlink" version="1.1" viewBox="0 0 549 472">
  <!-- Generator: Adobe Illustrator 30.1.0, SVG Export Plug-In . SVG Version: 2.1.1 Build 136)  -->
  <defs>
    <style>
      .st0 {
        font-size: 12px;
      }

      .st0, .st1, .st2, .st3, .st4, .st5, .st6, .st7, .st8, .st9, .st10, .st11, .st12 {
        isolation: isolate;
      }

      .st0, .st2, .st13, .st11, .st12 {
        fill: #fff;
      }

      .st0, .st2, .st11 {
        font-family: ArialMT, Arial;
      }

      .st14 {
        stroke: #12c5bf;
        stroke-dasharray: 2000;
      }

      .st14, .st15, .st16 {
        fill: none;
      }

      .st14, .st16 {
        stroke-miterlimit: 10;
      }

      .st17 {
        fill: url(#linear-gradient2);
      }

      .st18 {
        fill: url(#linear-gradient1);
      }

      .st19 {
        fill: url(#linear-gradient9);
      }

      .st20 {
        fill: url(#linear-gradient3);
      }

      .st21 {
        fill: url(#linear-gradient6);
      }

      .st22 {
        fill: url(#linear-gradient8);
      }

      .st23 {
        fill: url(#linear-gradient7);
      }

      .st24 {
        fill: url(#linear-gradient5);
      }

      .st25 {
        fill: url(#linear-gradient4);
      }

      .st1 {
        fill: url(#radial-gradient);
      }

      .st1, .st3, .st4, .st5, .st6, .st7, .st8, .st9, .st10 {
        opacity: .5;
      }

      .st26 {
        fill: url(#linear-gradient18);
      }

      .st27 {
        fill: url(#linear-gradient13);
      }

      .st28 {
        fill: url(#linear-gradient12);
      }

      .st29 {
        fill: url(#linear-gradient15);
      }

      .st30 {
        fill: url(#linear-gradient16);
      }

      .st31 {
        fill: url(#linear-gradient11);
      }

      .st32 {
        fill: url(#linear-gradient10);
      }

      .st33 {
        fill: url(#linear-gradient17);
      }

      .st34 {
        fill: url(#linear-gradient14);
      }

      .st35 {
        fill: url(#linear-gradient19);
      }

      .st36 {
        fill: url(#linear-gradient);
      }

      .st2 {
        font-size: 14px;
      }

      .st15 {
        stroke-miterlimit: 10;
        stroke-width: 1px;
      }

      .st15, .st16 {
        stroke: #e0dfdd;
      }

      .st3 {
        fill: url(#radial-gradient7);
      }

      .st4 {
        fill: url(#radial-gradient6);
      }

      .st5 {
        fill: url(#radial-gradient3);
      }

      .st6 {
        fill: url(#radial-gradient8);
      }

      .st7 {
        fill: url(#radial-gradient5);
      }

      .st8 {
        fill: url(#radial-gradient4);
      }

      .st9 {
        fill: url(#radial-gradient2);
      }

      .st10 {
        fill: url(#radial-gradient1);
      }

      .st11 {
        font-size: 9.7px;
      }

      .st37 {
        fill: #e0dfdd;
      }

      .st12 {
        opacity: .6;
      }
    </style>
    <linearGradient id="linear-gradient" x1="284.78" y1="743.08" x2="297.41" y2="743.08" gradientTransform="translate(0 -439.28)" gradientUnits="userSpaceOnUse">
      <stop offset="0" stop-color="#a58744"/>
      <stop offset=".34" stop-color="#d7c58a"/>
      <stop offset=".52" stop-color="#ede1a9"/>
      <stop offset="1" stop-color="#a58744"/>
    </linearGradient>
    <linearGradient id="linear-gradient1" x1="291.1" y1="736.63" x2="291.1" y2="751.29" gradientTransform="translate(0 -439.28)" gradientUnits="userSpaceOnUse">
      <stop offset="0" stop-color="#a58744"/>
      <stop offset=".34" stop-color="#d7c58a"/>
      <stop offset=".52" stop-color="#ede1a9"/>
      <stop offset="1" stop-color="#a58744"/>
    </linearGradient>
    <radialGradient id="radial-gradient" cx="3752.87" cy="29387.62" fx="3752.87" fy="29387.62" r="40.83" gradientTransform="translate(-289.08 -655.93) scale(.16 .03)" gradientUnits="userSpaceOnUse">
      <stop offset="0" stop-color="#231f20"/>
      <stop offset="1" stop-color="#717375" stop-opacity="0"/>
    </radialGradient>
    <linearGradient id="linear-gradient2" x1="304.5" y1="658.68" x2="317.12" y2="658.68" gradientTransform="translate(0 -439.28)" gradientUnits="userSpaceOnUse">
      <stop offset="0" stop-color="#a58744"/>
      <stop offset=".34" stop-color="#d7c58a"/>
      <stop offset=".52" stop-color="#ede1a9"/>
      <stop offset="1" stop-color="#a58744"/>
    </linearGradient>
    <linearGradient id="linear-gradient3" x1="310.8" y1="652.22" x2="310.8" y2="666.88" gradientTransform="translate(0 -439.28)" gradientUnits="userSpaceOnUse">
      <stop offset="0" stop-color="#a58744"/>
      <stop offset=".34" stop-color="#d7c58a"/>
      <stop offset=".52" stop-color="#ede1a9"/>
      <stop offset="1" stop-color="#a58744"/>
    </linearGradient>
    <radialGradient id="radial-gradient1" cx="3989.24" cy="30927.87" fx="3989.24" fy="30927.87" r="40.82" gradientTransform="translate(-289.08 -655.93) scale(.16 .03)" gradientUnits="userSpaceOnUse">
      <stop offset="0" stop-color="#231f20"/>
      <stop offset="1" stop-color="#717375" stop-opacity="0"/>
    </radialGradient>
    <linearGradient id="linear-gradient4" x1="342.28" y1="705.48" x2="354.9" y2="705.48" gradientTransform="translate(0 -439.28)" gradientUnits="userSpaceOnUse">
      <stop offset="0" stop-color="#a58744"/>
      <stop offset=".34" stop-color="#d7c58a"/>
      <stop offset=".52" stop-color="#ede1a9"/>
      <stop offset="1" stop-color="#a58744"/>
    </linearGradient>
    <linearGradient id="linear-gradient5" x1="348.6" y1="699.04" x2="348.6" y2="713.7" gradientTransform="translate(0 -439.28)" gradientUnits="userSpaceOnUse">
      <stop offset="0" stop-color="#a58744"/>
      <stop offset=".34" stop-color="#d7c58a"/>
      <stop offset=".52" stop-color="#ede1a9"/>
      <stop offset="1" stop-color="#a58744"/>
    </linearGradient>
    <radialGradient id="radial-gradient2" cx="4093.61" cy="32544.49" fx="4093.61" fy="32544.49" r="40.83" gradientTransform="translate(-289.08 -655.93) scale(.16 .03)" gradientUnits="userSpaceOnUse">
      <stop offset="0" stop-color="#231f20"/>
      <stop offset="1" stop-color="#717375" stop-opacity="0"/>
    </radialGradient>
    <linearGradient id="linear-gradient6" x1="358.96" y1="754.68" x2="371.58" y2="754.68" gradientTransform="translate(0 -439.28)" gradientUnits="userSpaceOnUse">
      <stop offset="0" stop-color="#a58744"/>
      <stop offset=".34" stop-color="#d7c58a"/>
      <stop offset=".52" stop-color="#ede1a9"/>
      <stop offset="1" stop-color="#a58744"/>
    </linearGradient>
    <linearGradient id="linear-gradient7" x1="365.3" y1="748.19" x2="365.3" y2="762.85" gradientTransform="translate(0 -439.28)" gradientUnits="userSpaceOnUse">
      <stop offset="0" stop-color="#a58744"/>
      <stop offset=".34" stop-color="#d7c58a"/>
      <stop offset=".52" stop-color="#ede1a9"/>
      <stop offset="1" stop-color="#a58744"/>
    </linearGradient>
    <radialGradient id="radial-gradient3" cx="4743.03" cy="32583.33" fx="4743.03" fy="32583.33" r="40.83" gradientTransform="translate(-289.08 -655.93) scale(.16 .03)" gradientUnits="userSpaceOnUse">
      <stop offset="0" stop-color="#231f20"/>
      <stop offset="1" stop-color="#717375" stop-opacity="0"/>
    </radialGradient>
    <linearGradient id="linear-gradient8" x1="462.73" y1="755.88" x2="475.36" y2="755.88" gradientTransform="translate(0 -439.28)" gradientUnits="userSpaceOnUse">
      <stop offset="0" stop-color="#a58744"/>
      <stop offset=".34" stop-color="#d7c58a"/>
      <stop offset=".52" stop-color="#ede1a9"/>
      <stop offset="1" stop-color="#a58744"/>
    </linearGradient>
    <linearGradient id="linear-gradient9" x1="469" y1="749.37" x2="469" y2="764.03" gradientTransform="translate(0 -439.28)" gradientUnits="userSpaceOnUse">
      <stop offset="0" stop-color="#a58744"/>
      <stop offset=".34" stop-color="#d7c58a"/>
      <stop offset=".52" stop-color="#ede1a9"/>
      <stop offset="1" stop-color="#a58744"/>
    </linearGradient>
    <radialGradient id="radial-gradient4" cx="4613.77" cy="33280.17" fx="4613.77" fy="33280.17" r="40.84" gradientTransform="translate(-289.08 -655.93) scale(.16 .03)" gradientUnits="userSpaceOnUse">
      <stop offset="0" stop-color="#231f20"/>
      <stop offset="1" stop-color="#717375" stop-opacity="0"/>
    </radialGradient>
    <linearGradient id="linear-gradient10" x1="442.08" y1="777.08" x2="454.71" y2="777.08" gradientTransform="translate(0 -439.28)" gradientUnits="userSpaceOnUse">
      <stop offset="0" stop-color="#a58744"/>
      <stop offset=".34" stop-color="#d7c58a"/>
      <stop offset=".52" stop-color="#ede1a9"/>
      <stop offset="1" stop-color="#a58744"/>
    </linearGradient>
    <linearGradient id="linear-gradient11" x1="448.4" y1="770.55" x2="448.4" y2="785.21" gradientTransform="translate(0 -439.28)" gradientUnits="userSpaceOnUse">
      <stop offset="0" stop-color="#a58744"/>
      <stop offset=".34" stop-color="#d7c58a"/>
      <stop offset=".52" stop-color="#ede1a9"/>
      <stop offset="1" stop-color="#a58744"/>
    </linearGradient>
    <radialGradient id="radial-gradient5" cx="4551.19" cy="35814.31" fx="4551.19" fy="35814.31" r="40.85" gradientTransform="translate(-289.08 -655.93) scale(.16 .03)" gradientUnits="userSpaceOnUse">
      <stop offset="0" stop-color="#231f20"/>
      <stop offset="1" stop-color="#717375" stop-opacity="0"/>
    </radialGradient>
    <linearGradient id="linear-gradient12" x1="432.08" y1="854.08" x2="444.71" y2="854.08" gradientTransform="translate(0 -439.28)" gradientUnits="userSpaceOnUse">
      <stop offset="0" stop-color="#a58744"/>
      <stop offset=".34" stop-color="#d7c58a"/>
      <stop offset=".52" stop-color="#ede1a9"/>
      <stop offset="1" stop-color="#a58744"/>
    </linearGradient>
    <linearGradient id="linear-gradient13" x1="438.4" y1="847.59" x2="438.4" y2="862.25" gradientTransform="translate(0 -439.28)" gradientUnits="userSpaceOnUse">
      <stop offset="0" stop-color="#a58744"/>
      <stop offset=".34" stop-color="#d7c58a"/>
      <stop offset=".52" stop-color="#ede1a9"/>
      <stop offset="1" stop-color="#a58744"/>
    </linearGradient>
    <radialGradient id="radial-gradient6" cx="4462.33" cy="36163.26" fx="4462.33" fy="36163.26" r="40.83" gradientTransform="translate(-289.08 -655.93) scale(.16 .03)" gradientUnits="userSpaceOnUse">
      <stop offset="0" stop-color="#231f20"/>
      <stop offset="1" stop-color="#717375" stop-opacity="0"/>
    </radialGradient>
    <linearGradient id="linear-gradient14" x1="417.88" y1="864.68" x2="430.5" y2="864.68" gradientTransform="translate(0 -439.28)" gradientUnits="userSpaceOnUse">
      <stop offset="0" stop-color="#a58744"/>
      <stop offset=".34" stop-color="#d7c58a"/>
      <stop offset=".52" stop-color="#ede1a9"/>
      <stop offset="1" stop-color="#a58744"/>
    </linearGradient>
    <linearGradient id="linear-gradient15" x1="424.2" y1="858.2" x2="424.2" y2="872.86" gradientTransform="translate(0 -439.28)" gradientUnits="userSpaceOnUse">
      <stop offset="0" stop-color="#a58744"/>
      <stop offset=".34" stop-color="#d7c58a"/>
      <stop offset=".52" stop-color="#ede1a9"/>
      <stop offset="1" stop-color="#a58744"/>
    </linearGradient>
    <radialGradient id="radial-gradient7" cx="3531.79" cy="35058.87" fx="3531.79" fy="35058.87" r="40.8" gradientTransform="translate(-289.08 -655.93) scale(.16 .03)" gradientUnits="userSpaceOnUse">
      <stop offset="0" stop-color="#231f20"/>
      <stop offset="1" stop-color="#717375" stop-opacity="0"/>
    </radialGradient>
    <linearGradient id="linear-gradient16" x1="269.17" y1="831.08" x2="281.79" y2="831.08" gradientTransform="translate(0 -439.28)" gradientUnits="userSpaceOnUse">
      <stop offset="0" stop-color="#a58744"/>
      <stop offset=".34" stop-color="#d7c58a"/>
      <stop offset=".52" stop-color="#ede1a9"/>
      <stop offset="1" stop-color="#a58744"/>
    </linearGradient>
    <linearGradient id="linear-gradient17" x1="275.5" y1="824.63" x2="275.5" y2="839.28" gradientTransform="translate(0 -439.28)" gradientUnits="userSpaceOnUse">
      <stop offset="0" stop-color="#a58744"/>
      <stop offset=".34" stop-color="#d7c58a"/>
      <stop offset=".52" stop-color="#ede1a9"/>
      <stop offset="1" stop-color="#a58744"/>
    </linearGradient>
    <radialGradient id="radial-gradient8" cx="3439.8" cy="35447.2" fx="3439.8" fy="35447.2" r="40.81" gradientTransform="translate(-289.08 -655.93) scale(.16 .03)" gradientUnits="userSpaceOnUse">
      <stop offset="0" stop-color="#231f20"/>
      <stop offset="1" stop-color="#717375" stop-opacity="0"/>
    </radialGradient>
    <linearGradient id="linear-gradient18" x1="254.47" y1="842.88" x2="267.09" y2="842.88" gradientTransform="translate(0 -439.28)" gradientUnits="userSpaceOnUse">
      <stop offset="0" stop-color="#a58744"/>
      <stop offset=".34" stop-color="#d7c58a"/>
      <stop offset=".52" stop-color="#ede1a9"/>
      <stop offset="1" stop-color="#a58744"/>
    </linearGradient>
    <linearGradient id="linear-gradient19" x1="260.8" y1="836.43" x2="260.8" y2="851.09" gradientTransform="translate(0 -439.28)" gradientUnits="userSpaceOnUse">
      <stop offset="0" stop-color="#a58744"/>
      <stop offset=".34" stop-color="#d7c58a"/>
      <stop offset=".52" stop-color="#ede1a9"/>
      <stop offset="1" stop-color="#a58744"/>
    </linearGradient>
  </defs>
  <g>
    <polygon class="st37" points="30.8 169.6 23.4 158.7 38.7 151.3 47.6 136.4 63 133 76.8 122.1 84.2 127.5 92.2 146.8 107.5 161.7 110.9 169.6 110.9 191.3 113.4 204.7 127.8 218 130.7 220.5 127.8 224 146.1 233.9 163.4 252.7 163.4 274.4 156.4 281.3 163.4 281.3 161.4 286.3 166.3 291.7 175.2 288.8 186.6 305.6 195.5 316.5 200.5 318.9 196.5 326.8 189.6 327.8 185.1 345.1 186.1 355 175.7 356.5 173.3 362.5 163.9 366.4 153.5 363.4 148 369.9 113.9 383.2 104.5 383.2 101.5 379.3 87.7 376.8 69.9 377.8 56.5 371.8 54.1 361.5 45.7 359 41.2 352.6 46.2 340.2 80.8 311 82.3 305.1 97.6 305.6 103.5 300.6 114.9 303.6 134.7 292.7 135.2 284.3 113.4 267 103 257.1 103 244.3 86.7 232.4 78.3 228.4 71.9 215.1 68.9 214.6 66.9 203.2 69.9 200.7 64 190.8 65 169.6 59 161.2 48.6 161.2 41.2 166.6 35.8 166.6 30.8 169.6"/>
    <polygon class="st37" points="19.7 263.4 30 263.4 39.4 267.4 58.2 265.4 66.6 257.5 65.2 251.5 68.6 243.6 68.6 234.2 62.2 223.4 51.8 215.4 43.9 215.4 39.9 220.4 33 221.4 26.1 223.9 12.2 223.4 7.3 224.8 7.3 230.8 10.3 234.7 10.3 246.6 19.7 263.4"/>
    <polygon class="st37" points="188.1 228.9 194.5 229.9 197.5 227.4 205.4 233.4 211.3 234.9 218.8 234.9 224.2 232.9 232.1 237.3 238 239.8 244 235.8 245.5 228.9 249.4 227.4 250.9 224.5 246 220 243.5 210.1 229.1 200.7 221.2 198.3 218.3 198.3 213.8 194.3 208.4 194.3 204.4 188.9 194.5 188.9 188.1 195.8 189.6 202.2 184.1 209.1 180.2 209.6 180.2 216.1 186.6 217.1 187.6 222 188.1 228.9"/>
    <polygon class="st37" points="424 441 429.4 437 440.3 435.6 447.2 440 450.2 445 448.2 449.4 442.3 447.9 437.8 449.4 433.9 446.4 427.5 445 424 441"/>
    <path class="st37" d="M253.9,308.5s12.4,4.9,13.4,5.4,5.4,4.5,5.4,4.5l8.4,4.5,10.9,1,5.4-2.5,4.9,1v-4.9l12.4,1,4.5-2.5,1.5-7.4h4.5l4.9-7.9-2.5-4,2.5-5.4v-4.9l2-5.9-13.4-8.9-4-9.4-15.8,2h-9.4l1.5,4-12.9-2-16.3,4.9-9.4,8.9-1.5,12.9,3,15.6Z"/>
    <polygon class="st37" points="449.7 355.5 470.5 364.4 479.4 360 491.3 358 499.2 355.5 505.1 343.2 508.1 334.3 516.5 332.8 529.3 317.9 532.8 313 528.4 306.6 524.4 309 513 306.6 507.1 304.6 505.6 309.5 489.3 317 482.9 330.3 478.9 334.3 472.5 334.3 467 332.8 467.5 338.2 464.6 341.2 455.7 347.1 449.7 351.1 449.7 355.5"/>
    <polygon class="st37" points="274.1 439 283.5 433.6 287 427.7 291 424.7 292 417.8 278.6 410.8 275.1 407.9 269.7 411.8 264.8 409.8 262.3 419.7 259.3 425.7 257.8 430.1 261.3 433.6 266.2 437 274.1 439"/>
    <path class="st37" d="M251.9,90.9l6.9,2.5,4.5,4.9,3,.5,5.4-2,6.4-2,3.5-4s1-4,1-3.5-8.4-7.9-8.4-7.9l-2-.5-2-3.5-9.4-1-6.9,4-3,4,1,8.5Z"/>
    <polygon class="st37" points="212.8 42 213.3 36 210.4 28.1 205.9 24.2 204.4 21.2 201 19.7 198.5 21.7 198.5 29.6 199.5 32.1 199.5 38.5 204.9 41.5 212.8 42"/>
    <path class="st37" d="M223,282.4c-.6,0-4.5,2.6-4.5,2.6v4.5l1.3,2.6,3.2.6,1.3,2.6,3.2-1.3,3.2-1.3.6-3.9-3.2-3.9-2.6-2.6-2.5.1h0Z"/>
    <polygon class="st37" points="216.2 252 218.7 250.2 219.3 247.1 217.4 245.3 215.6 244 214.4 244 214.4 246.5 213.1 247.7 212.5 250.2 213.7 252 216.2 252"/>
    <polygon class="st37" points="348.8 335.7 352.3 335.7 356.7 338.2 359.7 338.2 361.7 338.2 362.7 335.7 362.2 334.3 362.7 332.8 360.2 330.3 350.8 329.8 348.8 329.8 349.3 331.3 351.3 331.8 350.3 333.8 348.3 333.8 348.8 335.7"/>
    <polyline class="st37" points="305.6 255.7 311.5 255.7 315.6 252.6 309.3 239.4 305.6 241.7 307.5 248.5 305.6 251.7 305.6 254.8"/>
    <rect class="st37" x="252.09" y="215.1" width="2.7" height="2.7" transform="translate(-72.57 285.73) rotate(-52.5)"/>
    <rect class="st37" x="250.81" y="235.5" width="2.7" height="2.7" transform="translate(-89.26 292.7) rotate(-52.5)"/>
    <rect class="st37" x="304.79" y="234.99" width="2.7" height="2.7" transform="translate(-67.73 335.32) rotate(-52.5)"/>
    <polygon class="st37" points="344.9 281.6 340.9 280.4 344.4 277.9 348.4 280.4 344.9 281.6"/>
    <polygon class="st37" points="344.4 289.1 342.3 287.5 345.3 285.7 348 287 344.4 289.1"/>
  </g>
  <text class="st0" transform="translate(212.3 31.41)"><tspan x="0" y="0">Pinta</tspan></text>
  <text class="st0" transform="translate(200.03 90.98)"><tspan x="0" y="0">Marchena</tspan></text>
  <text class="st0" transform="translate(11.53 280.93)"><tspan x="0" y="0">Fernandina</tspan></text>
  <text class="st0" transform="translate(57.8 116.39)"><tspan x="0" y="0">Isabela</tspan></text>
  <text class="st0" transform="translate(183.07 184.34)"><tspan x="0" y="0">Santiago</tspan></text>
  <text class="st0" transform="translate(461.1 381.34)"><tspan x="0" y="0">San Cristobal</tspan></text>
  <text class="st0" transform="translate(271.24 250.4)"><tspan x="0" y="0">Baltra</tspan></text>
  <text class="st0" transform="translate(456.35 446.46)"><tspan x="0" y="0">Española</tspan></text>
  <g>
    <text class="st0" transform="translate(312.55 330.88)"><tspan x="0" y="0">Santa</tspan></text>
    <text class="st0" transform="translate(312.55 345.28)"><tspan x="0" y="0">Cruz</tspan></text>
  </g>
  <text class="st0" transform="translate(343.2 352.94)"><tspan x="0" y="0">Santa Fe</tspan></text>
  <text class="st0" transform="translate(249.29 457.43)"><tspan x="0" y="0">Floreana</tspan></text>
  <text class="st11" transform="translate(291.5 210.34)"><tspan x="0" y="0">Seymour</tspan></text>
  <text class="st11" transform="translate(351.83 284.78)"><tspan x="0" y="0">Plazas</tspan></text>
  <text class="st11" transform="translate(370.65 329)"><tspan x="0" y="0">Santa Fe</tspan></text>
  <g>
    <text class="st11" transform="translate(399 366.28)"><tspan x="0" y="0">Interpretation</tspan></text>
    <text class="st11" transform="translate(413.3 377.58)"><tspan x="0" y="0">Center</tspan></text>
  </g>
  <text class="st11" transform="translate(377.16 415.26)"><tspan x="0" y="0">Gardner Bay</tspan></text>
  <text class="st11" transform="translate(191.62 398.31)"><tspan x="0" y="0">Cormorant Point</tspan></text>
  <text class="st11" transform="translate(269.37 294.83)"><tspan x="0" y="0">Highlands</tspan></text>
  <text class="st11" transform="translate(190.87 406.86)"><tspan x="0" y="0">Devil’s Crown</tspan></text>
  <text class="st11" transform="translate(186.87 425.6)"><tspan x="0" y="0">Post Office Bay</tspan></text>
  <text class="st11" transform="translate(363.12 435.56)"><tspan x="0" y="0">Suarez Point</tspan></text>
  <g>
    <text class="st11" transform="translate(435.35 317.55)"><tspan x="0" y="0">Lobos</tspan></text>
    <text class="st11" transform="translate(435.65 328.85)"><tspan x="0" y="0">Island</tspan></text>
  </g>
  <text class="st2" transform="translate(17.89 457.26)"><tspan x="0" y="0">ITINERARY C</tspan></text>
  <g>
    <polygon class="st16" points="30.8 169.6 23.4 158.7 38.7 151.3 47.6 136.4 63 133 76.8 122.1 84.2 127.5 92.2 146.8 107.5 161.7 110.9 169.6 110.9 191.3 113.4 204.7 127.8 218 130.7 220.5 127.8 224 146.1 233.9 163.4 252.7 163.4 274.4 156.4 281.3 163.4 281.3 161.4 286.3 166.3 291.7 175.2 288.8 186.6 305.6 195.5 316.5 200.5 318.9 196.5 326.8 189.6 327.8 185.1 345.1 186.1 355 175.7 356.5 173.3 362.5 163.9 366.4 153.5 363.4 148 369.9 113.9 383.2 104.5 383.2 101.5 379.3 87.7 376.8 69.9 377.8 56.5 371.8 54.1 361.5 45.7 359 41.2 352.6 46.2 340.2 80.8 311 82.3 305.1 97.6 305.6 103.5 300.6 114.9 303.6 134.7 292.7 135.2 284.3 113.4 267 103 257.1 103 244.3 86.7 232.4 78.3 228.4 71.9 215.1 68.9 214.6 66.9 203.2 69.9 200.7 64 190.8 65 169.6 59 161.2 48.6 161.2 41.2 166.6 35.8 166.6 30.8 169.6"/>
    <polygon class="st16" points="19.7 263.4 30 263.4 39.4 267.4 58.2 265.4 66.6 257.5 65.2 251.5 68.6 243.6 68.6 234.2 62.2 223.4 51.8 215.4 43.9 215.4 39.9 220.4 33 221.4 26.1 223.9 12.2 223.4 7.3 224.8 7.3 230.8 10.3 234.7 10.3 246.6 19.7 263.4"/>
    <polygon class="st16" points="188.1 228.9 194.5 229.9 197.5 227.4 205.4 233.4 211.3 234.9 218.8 234.9 224.2 232.9 232.1 237.3 238 239.8 244 235.8 245.5 228.9 249.4 227.4 250.9 224.5 246 220 243.5 210.1 229.1 200.7 221.2 198.3 218.3 198.3 213.8 194.3 208.4 194.3 204.4 188.9 194.5 188.9 188.1 195.8 189.6 202.2 184.1 209.1 180.2 209.6 180.2 216.1 186.6 217.1 187.6 222 188.1 228.9"/>
    <polygon class="st16" points="424 441 429.4 437 440.3 435.6 447.2 440 450.2 445 448.2 449.4 442.3 447.9 437.8 449.4 433.9 446.4 427.5 445 424 441"/>
    <path class="st16" d="M253.9,308.5s12.4,4.9,13.4,5.4,5.4,4.5,5.4,4.5l8.4,4.5,10.9,1,5.4-2.5,4.9,1v-4.9l12.4,1,4.5-2.5,1.5-7.4h4.5l4.9-7.9-2.5-4,2.5-5.4v-4.9l2-5.9-13.4-8.9-4-9.4-15.8,2h-9.4l1.5,4-12.9-2-16.3,4.9-9.4,8.9-1.5,12.9,3,15.6Z"/>
    <polygon class="st16" points="449.7 355.5 470.5 364.4 479.4 360 491.3 358 499.2 355.5 505.1 343.2 508.1 334.3 516.5 332.8 529.3 317.9 532.8 313 528.4 306.6 524.4 309 513 306.6 507.1 304.6 505.6 309.5 489.3 317 482.9 330.3 478.9 334.3 472.5 334.3 467 332.8 467.5 338.2 464.6 341.2 455.7 347.1 449.7 351.1 449.7 355.5"/>
    <polygon class="st16" points="274.1 439 283.5 433.6 287 427.7 291 424.7 292 417.8 278.6 410.8 275.1 407.9 269.7 411.8 264.8 409.8 262.3 419.7 259.3 425.7 257.8 430.1 261.3 433.6 266.2 437 274.1 439"/>
    <path class="st16" d="M251.9,90.9l6.9,2.5,4.5,4.9,3,.5,5.4-2,6.4-2,3.5-4s1-4,1-3.5-8.4-7.9-8.4-7.9l-2-.5-2-3.5-9.4-1-6.9,4-3,4,1,8.5Z"/>
    <polygon class="st16" points="212.8 42 213.3 36 210.4 28.1 205.9 24.2 204.4 21.2 201 19.7 198.5 21.7 198.5 29.6 199.5 32.1 199.5 38.5 204.9 41.5 212.8 42"/>
    <path class="st16" d="M223,282.4c-.6,0-4.5,2.6-4.5,2.6v4.5l1.3,2.6,3.2.6,1.3,2.6,3.2-1.3,3.2-1.3.6-3.9-3.2-3.9-2.6-2.6-2.5.1h0Z"/>
    <polygon class="st16" points="216.2 252 218.7 250.2 219.3 247.1 217.4 245.3 215.6 244 214.4 244 214.4 246.5 213.1 247.7 212.5 250.2 213.7 252 216.2 252"/>
    <polygon class="st16" points="348.8 335.7 352.3 335.7 356.7 338.2 359.7 338.2 361.7 338.2 362.7 335.7 362.2 334.3 362.7 332.8 360.2 330.3 350.8 329.8 348.8 329.8 349.3 331.3 351.3 331.8 350.3 333.8 348.3 333.8 348.8 335.7"/>
    <polyline class="st16" points="305.6 255.7 311.5 255.7 315.6 252.6 309.3 239.4 305.6 241.7 307.5 248.5 305.6 251.7 305.6 254.8"/>
    <rect class="st15" x="252.09" y="215.1" width="2.7" height="2.7" transform="translate(-72.57 285.73) rotate(-52.5)"/>
    <rect class="st15" x="250.81" y="235.5" width="2.7" height="2.7" transform="translate(-89.26 292.7) rotate(-52.5)"/>
    <rect class="st15" x="304.79" y="234.99" width="2.7" height="2.7" transform="translate(-67.73 335.32) rotate(-52.5)"/>
    <polygon class="st16" points="344.9 281.6 340.9 280.4 344.4 277.9 348.4 280.4 344.9 281.6"/>
    <polygon class="st16" points="344.4 289.1 342.3 287.5 345.3 285.7 348 287 344.4 289.1"/>
  </g>
  <g>
    <path class="st13" d="M291.5,321.5c.1.2,0,.5-.2.6h0c-.2.1-.5,0-.6-.2l.1-14.2c-.1-.2,0-.5.2-.6h0c.2-.1.5,0,.6.2l-.1,14.2Z"/>
    <g>
      <circle class="st36" cx="291.1" cy="303.8" r="6.3"/>
      <path class="st18" d="M296.8,303.5c0,3.1-2.5,5.7-5.7,5.7s-5.7-2.5-5.7-5.7,2.5-5.7,5.7-5.7,5.7,2.5,5.7,5.7Z"/>
      <path class="st12" d="M295.3,300.7c0,.8-.6,1.4-1.4,1.4s-1.4-.6-1.4-1.4.6-1.4,1.4-1.4c.8-.1,1.4.6,1.4,1.4Z"/>
    </g>
  </g>
  <path class="st14" d="M310.6,237.4s22.5,4.7,38.4,46.5c0,0,3.5,33.2,16.4,49.8,0,0,27.5,29,82.8,20.9,4.9-7.9-3.7-20,20.7-21.2,2.7-7.6,28.8-62,69.4-28.8,2-2,44.1,72.1-100.3,131-.6-1.8-16.1-8.4-14.2,7.9-1-1.1-60.4-13.7-147.9-34,0,0-25-7.67-14.7,11.8-1.7,7.61-73.59-48.7,29.7-98.2"/>
  <g>
    <ellipse class="st1" cx="310.6" cy="237.4" rx="6.5" ry="1.2"/>
    <g>
      <path class="st13" d="M311.2,237.1c.1.2,0,.5-.2.6h0c-.2.1-.5,0-.6-.2l.1-14.2c-.1-.2,0-.5.2-.6h0c.2-.1.5,0,.6.2l-.1,14.2Z"/>
      <g>
        <circle class="st17" cx="310.8" cy="219.4" r="6.3"/>
        <path class="st20" d="M316.5,219c0,3.1-2.5,5.7-5.7,5.7s-5.7-2.5-5.7-5.7,2.5-5.7,5.7-5.7,5.7,2.6,5.7,5.7Z"/>
        <path class="st12" d="M315.1,216.2c0,.8-.6,1.4-1.4,1.4s-1.4-.6-1.4-1.4.6-1.4,1.4-1.4c.7,0,1.4.6,1.4,1.4Z"/>
      </g>
    </g>
  </g>
  <g>
    <ellipse class="st10" cx="348.4" cy="284.3" rx="6.5" ry="1.2"/>
    <g>
      <path class="st13" d="M349,283.9c.1.2,0,.5-.2.6h0c-.2.1-.5,0-.6-.2l.1-14.2c-.1-.2,0-.5.2-.6h0c.2-.1.5,0,.6.2l-.1,14.2Z"/>
      <g>
        <circle class="st25" cx="348.6" cy="266.2" r="6.3"/>
        <path class="st24" d="M354.3,265.9c0,3.1-2.5,5.7-5.7,5.7s-5.7-2.5-5.7-5.7,2.5-5.7,5.7-5.7c3.1,0,5.7,2.5,5.7,5.7Z"/>
        <path class="st12" d="M352.8,263.1c0,.8-.6,1.4-1.4,1.4s-1.4-.6-1.4-1.4.6-1.4,1.4-1.4,1.4.6,1.4,1.4Z"/>
      </g>
    </g>
  </g>
  <g>
    <ellipse class="st9" cx="365.1" cy="333.4" rx="6.5" ry="1.2"/>
    <g>
      <path class="st13" d="M365.6,333.1c.1.2,0,.5-.2.6h0c-.2.1-.5,0-.6-.2l.1-14.2c-.1-.2,0-.5.2-.6h0c.2-.1.5,0,.6.2l-.1,14.2Z"/>
      <g>
        <circle class="st21" cx="365.3" cy="315.4" r="6.3"/>
        <path class="st23" d="M371,315c0,3.1-2.5,5.7-5.7,5.7s-5.7-2.5-5.7-5.7,2.5-5.7,5.7-5.7c3.1.1,5.7,2.6,5.7,5.7Z"/>
        <path class="st12" d="M369.5,312.3c0,.8-.6,1.4-1.4,1.4s-1.4-.6-1.4-1.4.6-1.4,1.4-1.4c.8-.1,1.4.6,1.4,1.4Z"/>
      </g>
    </g>
  </g>
  <g>
    <ellipse class="st5" cx="468.9" cy="334.6" rx="6.5" ry="1.2"/>
    <g>
      <path class="st13" d="M469.4,334.3c.1.2,0,.5-.2.6h0c-.2.1-.5,0-.6-.2l.1-14.2c-.1-.2,0-.5.2-.6h0c.2-.1.5,0,.6.2l-.1,14.2Z"/>
      <g>
        <circle class="st22" cx="469" cy="316.6" r="6.3"/>
        <path class="st19" d="M474.7,316.2c0,3.1-2.5,5.7-5.7,5.7s-5.7-2.5-5.7-5.7,2.5-5.7,5.7-5.7,5.7,2.6,5.7,5.7Z"/>
        <path class="st12" d="M473.3,313.4c0,.8-.6,1.4-1.4,1.4s-1.4-.6-1.4-1.4.6-1.4,1.4-1.4c.7,0,1.4.6,1.4,1.4Z"/>
      </g>
    </g>
  </g>
  <g>
    <ellipse class="st8" cx="448.2" cy="355.8" rx="6.5" ry="1.2"/>
    <g>
      <path class="st13" d="M448.8,355.5c.1.2,0,.5-.2.6h0c-.2.1-.5,0-.6-.2l.1-14.2c-.1-.2,0-.5.2-.6h0c.2-.1.5,0,.6.2l-.1,14.2Z"/>
      <g>
        <circle class="st32" cx="448.4" cy="337.8" r="6.3"/>
        <path class="st31" d="M454.1,337.4c0,3.1-2.5,5.7-5.7,5.7s-5.7-2.5-5.7-5.7,2.5-5.7,5.7-5.7c3.2,0,5.7,2.6,5.7,5.7Z"/>
        <path class="st12" d="M452.6,334.6c0,.8-.6,1.4-1.4,1.4s-1.4-.6-1.4-1.4.6-1.4,1.4-1.4,1.4.6,1.4,1.4Z"/>
      </g>
    </g>
  </g>
  <g>
    <ellipse class="st7" cx="438.2" cy="432.8" rx="6.5" ry="1.2"/>
    <g>
      <path class="st13" d="M438.8,432.5c.1.2,0,.5-.2.6h0c-.2.1-.5,0-.6-.2l.1-14.2c-.1-.2,0-.5.2-.6h0c.2-.1.5,0,.6.2l-.1,14.2Z"/>
      <g>
        <circle class="st28" cx="438.4" cy="414.8" r="6.3"/>
        <path class="st27" d="M444.1,414.4c0,3.1-2.5,5.7-5.7,5.7s-5.7-2.5-5.7-5.7,2.5-5.7,5.7-5.7,5.7,2.6,5.7,5.7Z"/>
        <path class="st12" d="M442.6,411.7c0,.8-.6,1.4-1.4,1.4s-1.4-.6-1.4-1.4.6-1.4,1.4-1.4c.8-.1,1.4.6,1.4,1.4Z"/>
      </g>
    </g>
  </g>
  <g>
    <ellipse class="st4" cx="424" cy="443.4" rx="6.5" ry="1.2"/>
    <g>
      <path class="st13" d="M424.6,443.1c.1.2,0,.5-.2.6h0c-.2.1-.5,0-.6-.2l.1-14.2c-.1-.2,0-.5.2-.6h0c.2-.1.5,0,.6.2l-.1,14.2Z"/>
      <g>
        <circle class="st34" cx="424.2" cy="425.4" r="6.3"/>
        <path class="st29" d="M429.9,425c0,3.1-2.5,5.7-5.7,5.7s-5.7-2.5-5.7-5.7,2.5-5.7,5.7-5.7c3.1.1,5.7,2.6,5.7,5.7Z"/>
        <path class="st12" d="M428.4,422.3c0,.8-.6,1.4-1.4,1.4s-1.4-.6-1.4-1.4.6-1.4,1.4-1.4c.8-.1,1.4.6,1.4,1.4Z"/>
      </g>
    </g>
  </g>
  <g>
    <ellipse class="st3" cx="275.3" cy="409.9" rx="6.5" ry="1.2"/>
    <g>
      <path class="st13" d="M275.9,409.5c.1.2,0,.5-.2.6h0c-.2.1-.5,0-.6-.2l.1-14.2c-.1-.2,0-.5.2-.6h0c.2-.1.5,0,.6.2l-.1,14.2Z"/>
      <g>
        <circle class="st30" cx="275.5" cy="391.8" r="6.3"/>
        <path class="st33" d="M281.2,391.5c0,3.1-2.5,5.7-5.7,5.7s-5.7-2.5-5.7-5.7,2.5-5.7,5.7-5.7,5.7,2.5,5.7,5.7Z"/>
        <path class="st12" d="M279.7,388.7c0,.8-.6,1.4-1.4,1.4s-1.4-.6-1.4-1.4.6-1.4,1.4-1.4c.8-.1,1.4.6,1.4,1.4Z"/>
      </g>
    </g>
  </g>
  <g>
    <ellipse class="st6" cx="260.6" cy="421.7" rx="6.5" ry="1.2"/>
    <g>
      <path class="st13" d="M261.2,421.3c.1.2,0,.5-.2.6h0c-.2.1-.5,0-.6-.2l.1-14.2c-.1-.2,0-.5.2-.6h0c.2-.1.5,0,.6.2l-.1,14.2Z"/>
      <g>
        <circle class="st26" cx="260.8" cy="403.6" r="6.3"/>
        <path class="st35" d="M266.5,403.3c0,3.1-2.5,5.7-5.7,5.7s-5.7-2.5-5.7-5.7,2.5-5.7,5.7-5.7c3.1,0,5.7,2.5,5.7,5.7Z"/>
        <path class="st12" d="M265,400.5c0,.8-.6,1.4-1.4,1.4s-1.4-.6-1.4-1.4.6-1.4,1.4-1.4c.8-.1,1.4.6,1.4,1.4Z"/>
      </g>
    </g>
  </g>
</svg>