<?xml version="1.0" encoding="UTF-8"?>
<!-- Generator: Adobe Illustrator 23.0.3, SVG Export Plug-In . SVG Version: 6.00 Build 0)  -->
<svg class="shadow" version="1.1" id="Capa_1" xmlns="http://www.w3.org/2000/svg" xmlns:xlink="http://www.w3.org/1999/xlink" x="0px" y="0px" viewBox="0 0 549 472" style="enable-background:new 0 0 549 472;" xml:space="preserve">
<style type="text/css">
.shadow{
filter: drop-shadow( 3px 0 2px hsla(0, 0%, 0%, 0.2));
}
	.st1{fill:#e0dfdd;}
	.st2{fill:#ffffff;}
	.st3{font-family:'ArialMT';}
	.st4{font-size:12px;}
	.st5{font-size:14px;}
	.st6{fill:#C4A66A;}
	.st7{font-size:9.6955px;}
	.st8{fill:none;stroke:#e0dfdd;stroke-miterlimit:10;}
	.st9{fill:#0931D6;}
	.st10{opacity:0.5;fill:url(#SVGID_1_);enable-background:new    ;}
	.st11{fill:url(#SVGID_2_);}
	.st12{fill:url(#SVGID_3_);}
	.st13{opacity:0.6;fill:#FFFFFF;enable-background:new    ;}
	.st14{opacity:0.5;fill:url(#SVGID_4_);enable-background:new    ;}
	.st15{fill:url(#SVGID_5_);}
	.st16{fill:url(#SVGID_6_);}
	.st17{opacity:0.5;fill:url(#SVGID_7_);enable-background:new    ;}
	.st18{fill:url(#SVGID_8_);}
	.st19{fill:url(#SVGID_9_);}
	.st20{opacity:0.5;fill:url(#SVGID_10_);enable-background:new    ;}
	.st21{fill:url(#SVGID_11_);}
	.st22{fill:url(#SVGID_12_);}
	.st23{opacity:0.5;fill:url(#SVGID_13_);enable-background:new    ;}
	.st24{fill:url(#SVGID_14_);}
	.st25{fill:url(#SVGID_15_);}
	.st26{opacity:0.5;fill:url(#SVGID_16_);enable-background:new    ;}
	.st27{fill:url(#SVGID_17_);}
	.st28{fill:url(#SVGID_18_);}
	.st29{opacity:0.5;fill:url(#SVGID_19_);enable-background:new    ;}
	.st30{fill:url(#SVGID_20_);}
	.st31{fill:url(#SVGID_21_);}
	.st32{fill:none;stroke:#12c5bf;stroke-miterlimit:10;
	stroke-dasharray: 2000;
		stroke-dashoffset:0;
		-webkit-animation: dash 15s linear forwards infinite;
		-o-animation:dash 15s linear forwards infinite;
		-moz-animation: dash 10s linear forwards infinite;
		animation: dash 15s linear forwards infinite;
	}
		
	@-webkit-keyframes dash{
		from{
			stroke-dashoffset:2000;
		}
		to{
			stroke-dashoffset:0;
		}
	}

</style>
<g class="st0">
	<g>
		<polygon class="st1" points="35.1,164.6 27.7,153.6 43.1,146.2 52,131.3 67.4,127.8 81.3,116.9 88.7,122.4 96.7,141.7     112.1,156.6 115.5,164.6 115.5,186.4 118,199.8 132.4,213.2 135.4,215.7 132.4,219.2 150.8,229.1 168.2,248 168.2,269.8     161.2,276.8 168.2,276.8 166.2,281.7 171.1,287.2 180.1,284.2 191.5,301.1 200.4,312 205.4,314.5 201.4,322.4 194.5,323.4     190,340.8 191,350.7 180.6,352.2 178.1,358.2 168.7,362.1 158.2,359.2 152.8,365.6 118.5,379 109.1,379 106.1,375.1 92.2,372.6     74.3,373.6 60.9,367.6 58.5,357.2 50,354.7 45.5,348.2 50.5,335.8 85.3,306.5 86.8,300.6 102.1,301.1 108.1,296.1 119.5,299.1     139.4,288.2 139.9,279.7 118,262.4 107.6,252.4 107.6,239.5 91.2,227.6 82.8,223.6 76.3,210.2 73.3,209.7 71.4,198.3 74.3,195.8     68.4,185.9 69.4,164.6 63.4,156.1 53,156.1 45.5,161.6 40.1,161.6   "/>
		<polygon class="st1" points="23.9,258.8 34.3,258.8 43.8,262.7 62.6,260.8 71.1,252.8 69.6,246.9 73.1,238.9 73.1,229.5     66.6,218.6 56.2,210.6 48.2,210.6 44.3,215.6 37.3,216.6 30.4,219.1 16.5,218.6 11.5,220 11.5,226 14.5,230 14.5,241.9   "/>
		<polygon class="st1" points="183.3,224.1 189.8,225.1 192.7,222.7 200.7,228.6 206.6,230.1 214.1,230.1 219.5,228.1 227.5,232.6     233.4,235.1 239.4,231.1 240.9,224.1 244.9,222.7 246.4,219.7 241.4,215.2 238.9,205.3 224.5,195.8 216.6,193.4 213.6,193.4     209.1,189.4 203.7,189.4 199.7,183.9 189.8,183.9 183.3,190.9 184.8,197.3 179.3,204.3 175.4,204.8 175.4,211.2 181.8,212.2     182.8,217.2   "/>
		<polygon class="st1" points="429.8,437 435.2,433.1 446.2,431.6 453.1,436 456.1,441 454.1,445.5 448.2,444 443.7,445.5     439.7,442.5 433.3,441   "/>
		<path class="st1" d="M259,304.1c0,0,12.4,5,13.4,5.5s5.5,4.5,5.5,4.5l8.4,4.5l10.9,1l5.5-2.5l5,1v-5l12.4,1l4.5-2.5l1.5-7.4h4.5    l5-7.9l-2.5-4l2.5-5.5v-5l2-6l-13.4-8.9l-4-9.4l-15.9,2h-9.4l1.5,4l-12.9-2l-16.4,5l-9.4,8.9l-1.5,12.9L259,304.1z"/>
		<polygon class="st1" points="455.6,351.2 476.5,360.2 485.4,355.7 497.3,353.7 505.2,351.2 511.2,338.8 514.2,329.9 522.6,328.4     535.5,313.5 539,308.5 534.5,302.1 530.6,304.6 519.1,302.1 513.2,300.1 511.7,305.1 495.3,312.5 488.9,325.9 484.9,329.9     478.4,329.9 473,328.4 473.5,333.9 470.5,336.8 461.6,342.8 455.6,346.8   "/>
		<polygon class="st1" points="279.4,435 288.8,429.6 292.3,423.6 296.2,420.6 297.2,413.7 283.8,406.7 280.4,403.8 274.9,407.7     269.9,405.8 267.5,415.7 264.5,421.6 263,426.1 266.5,429.6 271.4,433.1   "/>
		<path class="st1" d="M257,85.6l7,2.5l4.5,5l3,0.5l5.5-2l6.5-2l3.5-4c0,0,1-4,1-3.5s-8.4-7.9-8.4-7.9l-2-0.5l-2-3.5l-9.4-1l-7,4    l-3,4L257,85.6z"/>
		<polygon class="st1" points="217.8,36.5 218.3,30.5 215.3,22.6 210.9,18.6 209.4,15.6 205.9,14.1 203.4,16.1 203.4,24.1     204.4,26.6 204.4,33 209.9,36   "/>
		<polygon class="st1" points="381.2,86.7 382.1,84.6 385.8,84.6 386.1,87.9 384.3,88.6 386.1,91 388.8,88.9 390.7,84.6 390.1,79.1     384.6,76.1 381.5,77.9 377.9,77.3 377.3,84.6 377.9,86.4   "/>
		<path class="st1" d="M228,277.8c-0.7,0-4.6,2.6-4.6,2.6v4.6l1.3,2.6l3.3,0.7l1.3,2.6l3.3-1.3l3.3-1.3l0.7-3.9l-3.3-3.9l-2.6-2.6    H228V277.8L228,277.8z"/>
		<polygon class="st1" points="221.2,247.3 223.7,245.5 224.3,242.4 222.4,240.5 220.6,239.3 219.3,239.3 219.3,241.8 218.1,243     217.5,245.5 218.7,247.3   "/>
		<polygon class="st1" points="354.3,331.4 357.8,331.4 362.3,333.9 365.3,333.9 367.2,333.9 368.2,331.4 367.7,329.9 368.2,328.4     365.7,325.9 356.3,325.4 354.3,325.4 354.8,326.9 356.8,327.4 355.8,329.4 353.8,329.4   "/>
		<polyline class="st1" points="311,251.1 316.9,251.1 321,247.9 314.6,234.7 311,236.9 312.8,243.8 311,247 311,250.1   "/>
		<g>
			
				<rect x="257.3" y="210.2" transform="matrix(0.6088 -0.7933 0.7933 0.6088 -66.6486 287.9161)" class="st1" width="2.7" height="2.7"/>
		</g>
		<g>
			
				<rect x="255.9" y="230.7" transform="matrix(0.6088 -0.7933 0.7933 0.6088 -83.4615 294.8471)" class="st1" width="2.7" height="2.7"/>
		</g>
		<g>
			
				<rect x="310.1" y="230.3" transform="matrix(0.6088 -0.7933 0.7933 0.6088 -61.9683 337.694)" class="st1" width="2.7" height="2.7"/>
		</g>
		<g>
			<polygon class="st1" points="350.4,277 346.3,275.8 349.9,273.3 353.9,275.8    "/>
		</g>
		<g>
			<polygon class="st1" points="349.9,284.6 347.8,282.9 350.8,281.1 353.5,282.5    "/>
		</g>
	</g>
</g>
<g>
	<text transform="matrix(1 0 0 1 425.3531 375.1869)" class="st2 st3 st4">San Cristobal</text>
</g>
<g>
	<text transform="matrix(1 0 0 1 268.8651 335.3984)" class="st2 st3 st4">Santa Cruz</text>
</g>
<g>
	<text transform="matrix(1 0 0 1 373.6442 334.5228)" class="st2 st3 st4">Santa Fe</text>
</g>
<g>
	<text transform="matrix(1 0 0 1 323.8294 250.8466)" class="st2 st3 st4">Baltra</text>
</g>
<g>
	<text transform="matrix(1 0 0 1 384.0595 445.4688)" class="st2 st3 st4">Española</text>
</g>
<g>
	<text transform="matrix(1 0 0 1 215.0242 426.6302)" class="st2 st3 st4">Floreana</text>
</g>
<g>
	<text transform="matrix(1 0 0 1 55.0431 111.5277)" class="st2 st3 st4">Isabela</text>
</g>
<g>
	<text transform="matrix(1 0 0 1 220.1329 25.8832)" class="st2 st3 st4">Pinta</text>
</g>
<g>
	<text transform="matrix(1 0 0 1 201.9873 85.6713)" class="st2 st3 st4">Marchena</text>
</g>
<g>
	<text transform="matrix(1 0 0 1 17.9333 457.2586)" class="st2 st3 st5">ITINERARY A</text>
</g>
<g>
	<text transform="matrix(1 0 0 1 363.9575 59.0101)" class="st2 st3 st4">Genovesa</text>
</g>
<g>
	<text transform="matrix(1 0 0 1 10.0641 276.35)" class="st2 st3 st4">Fernandina</text>
</g>
<g>
	<g>
		<text transform="matrix(1 0 0 1 311.4177 77.5941)" class="st6 st3 st7">Darwin Bay</text>
		<text transform="matrix(1 0 0 1 232.4938 169.2963)" class="st6 st3 st7">Sullivan</text>
		<text transform="matrix(1 0 0 1 240.7938 180.5963)" class="st6 st3 st7">Bay</text>
		<text transform="matrix(1 0 0 1 225.6129 250.349)" class="st6 st3 st7">Chinese</text>
		<text transform="matrix(1 0 0 1 235.8129 261.649)" class="st6 st3 st7">Hat</text>
		<text transform="matrix(1 0 0 1 320.4996 239.8505)" class="st6 st3 st7">Mosquera</text>
		<text transform="matrix(1 0 0 1 279.9176 206.4623)" class="st6 st3 st7">Black</text>
		<text transform="matrix(1 0 0 1 279.9176 217.7623)" class="st6 st3 st7">Turtle</text>
		<text transform="matrix(1 0 0 1 280.7176 229.0623)" class="st6 st3 st7">Cove</text>
		<text transform="matrix(1 0 0 1 221.318 303.2719)" class="st6 st3 st7">Charles</text>
		<text transform="matrix(1 0 0 1 222.918 314.5719)" class="st6 st3 st7">Darwin</text>
		<text transform="matrix(1 0 0 1 223.218 325.8719)" class="st6 st3 st7">Station</text>
		<text transform="matrix(1 0 0 1 401.3931 98.601)" class="st6 st3 st7">Barranco</text>
	</g>
</g>
<polygon class="st8" points="35.1,164.6 27.7,153.6 43.1,146.2 52,131.3 67.4,127.8 81.3,116.9 88.7,122.4 96.7,141.7 112.1,156.6   115.5,164.6 115.5,186.4 118,199.8 132.4,213.2 135.4,215.7 132.4,219.2 150.8,229.1 168.2,248 168.2,269.8 161.2,276.8   168.2,276.8 166.2,281.7 171.1,287.2 180.1,284.2 191.5,301.1 200.4,312 205.4,314.5 201.4,322.4 194.5,323.4 190,340.8 191,350.7   180.6,352.2 178.1,358.2 168.7,362.1 158.2,359.2 152.8,365.6 118.5,379 109.1,379 106.1,375.1 92.2,372.6 74.3,373.6 60.9,367.6   58.5,357.2 50,354.7 45.5,348.2 50.5,335.8 85.3,306.5 86.8,300.6 102.1,301.1 108.1,296.1 119.5,299.1 139.4,288.2 139.9,279.7   118,262.4 107.6,252.4 107.6,239.5 91.2,227.6 82.8,223.6 76.3,210.2 73.3,209.7 71.4,198.3 74.3,195.8 68.4,185.9 69.4,164.6   63.4,156.1 53,156.1 45.5,161.6 40.1,161.6 "/>
<polygon class="st8" points="23.9,258.8 34.3,258.8 43.8,262.7 62.6,260.8 71.1,252.8 69.6,246.9 73.1,238.9 73.1,229.5 66.6,218.6   56.2,210.6 48.2,210.6 44.3,215.6 37.3,216.6 30.4,219.1 16.5,218.6 11.5,220 11.5,226 14.5,230 14.5,241.9 "/>
<polygon class="st8" points="183.3,224.1 189.8,225.1 192.7,222.7 200.7,228.6 206.6,230.1 214.1,230.1 219.5,228.1 227.5,232.6   233.4,235.1 239.4,231.1 240.9,224.1 244.9,222.7 246.4,219.7 241.4,215.2 238.9,205.3 224.5,195.8 216.6,193.4 213.6,193.4   209.1,189.4 203.7,189.4 199.7,183.9 189.8,183.9 183.3,190.9 184.8,197.3 179.3,204.3 175.4,204.8 175.4,211.2 181.8,212.2   182.8,217.2 "/>

<polygon class="st8" points="429.8,437 435.2,433.1 446.2,431.6 453.1,436 456.1,441 454.1,445.5 448.2,444 443.7,445.5   439.7,442.5 433.3,441 "/>
<path class="st8" d="M259,304.1c0,0,12.4,5,13.4,5.5s5.5,4.5,5.5,4.5l8.4,4.5l10.9,1l5.5-2.5l5,1v-5l12.4,1l4.5-2.5l1.5-7.4l6.4,1  l5-7.9l-4.4-5l2.5-5.5v-5l2-6l-13.4-8.9l-4-9.4l-15.9,2h-9.4l1.5,4l-12.9-2l-16.4,5l-9.4,8.9l-1.5,12.9L259,304.1z"/>
<polygon class="st8" points="455.6,351.2 476.5,360.2 485.4,355.7 497.3,353.7 505.2,351.2 511.2,338.8 514.2,329.9 522.6,328.4   535.5,313.5 539,308.5 534.5,302.1 530.6,304.6 519.1,302.1 513.2,300.1 511.7,305.1 495.3,312.5 488.9,325.9 484.9,329.9   478.4,329.9 473,328.4 473.5,333.9 470.5,336.8 461.6,342.8 455.6,346.8 "/>
<polygon class="st8" points="279.4,435 288.8,429.6 292.3,423.6 296.2,420.6 297.2,413.7 283.8,406.7 280.4,403.8 274.9,407.7   269.9,405.8 267.5,415.7 264.5,421.6 263,426.1 266.5,429.6 271.4,433.1 "/>
<path class="st8" d="M257,85.6l7,2.5l4.5,5l3,0.5l5.5-2l6.5-2l3.5-4c0,0,1-4,1-3.5s-8.4-7.9-8.4-7.9l-2-0.5l-2-3.5l-9.4-1l-7,4l-3,4  L257,85.6z"/>
<polygon class="st8" points="217.8,36.5 218.3,30.5 215.3,22.6 210.9,18.6 209.4,15.6 205.9,14.1 203.4,16.1 203.4,24.1 204.4,26.6   204.4,33 209.9,36 "/>
<polygon class="st8" points="381.2,86.7 382.1,84.6 385.8,84.6 386.1,87.9 384.3,88.6 386.1,91 388.8,88.9 390.7,84.6 390.1,79.1   384.6,76.1 381.5,77.9 377.9,77.3 377.3,84.6 377.9,86.4 "/>
<path class="st8" d="M228,277.8c-0.7,0-4.6,2.6-4.6,2.6v4.6l1.3,2.6l3.3,0.7l1.3,2.6l3.3-1.3l3.3-1.3l0.7-3.9l-3.3-3.9l-2.6-2.6H228  V277.8L228,277.8z"/>
<polygon class="st8" points="221.2,247.3 223.7,245.5 224.3,242.4 222.4,240.5 220.6,239.3 219.3,239.3 219.3,241.8 218.1,243   217.5,245.5 218.7,247.3 "/>
<polygon class="st8" points="354.3,331.4 357.8,331.4 362.3,333.9 365.3,333.9 367.2,333.9 368.2,331.4 367.7,329.9 368.2,328.4   365.7,325.9 356.3,325.4 354.3,325.4 354.8,326.9 356.8,327.4 355.8,329.4 353.8,329.4 "/>
<polyline class="st8" points="311,251.1 316.9,251.1 321,247.9 314.6,234.7 311,236.9 312.8,243.8 311,247 311,250.1 "/>
<g>
	
		<rect x="257.3" y="210.3" transform="matrix(0.6088 -0.7933 0.7933 0.6088 -66.7047 287.9723)" class="st8" width="2.7" height="2.7"/>
</g>
<g>
	
		<rect x="255.9" y="230.7" transform="matrix(0.6088 -0.7933 0.7933 0.6088 -83.4647 294.8595)" class="st8" width="2.7" height="2.7"/>
</g>
<g>
	
		<rect x="310.1" y="230.3" transform="matrix(0.6088 -0.7933 0.7933 0.6088 -61.9289 337.7104)" class="st8" width="2.7" height="2.7"/>
</g>
<g>
	<polygon class="st8" points="350.4,277 346.3,275.8 349.9,273.3 353.9,275.8  "/>
</g>
<g>
	<polygon class="st8" points="349.9,284.6 347.8,282.9 350.8,281.1 353.5,282.5  "/>
</g>
<g>
	
		<radialGradient id="SVGID_1_" cx="3544.8279" cy="-26081.4316" r="40.8302" gradientTransform="matrix(0.1598 0 0 -3.040000e-02 -263.0342 -477.6849)" gradientUnits="userSpaceOnUse">
		<stop offset="0" style="stop-color:#231F20"/>
		<stop offset="1" style="stop-color:#717375;stop-opacity:0"/>
	</radialGradient>
	<ellipse class="st10" cx="303.4" cy="315.1" rx="6.5" ry="1.2"/>
	<g>
		<path class="st2" d="M304,314.8c0.1,0.2,0,0.5-0.2,0.6l0,0c-0.2,0.1-0.5,0-0.6-0.2l0.1-14.2c-0.1-0.2,0-0.5,0.2-0.6l0,0    c0.2-0.1,0.5,0,0.6,0.2L304,314.8z"/>
		<g>
			
				<linearGradient id="SVGID_2_" gradientUnits="userSpaceOnUse" x1="297.3" y1="55.5744" x2="309.9228" y2="55.5744" gradientTransform="matrix(1 0 0 -1 0 352.7244)">
				<stop offset="0" style="stop-color:#A58744"/>
				<stop offset="0.3409" style="stop-color:#D7C58A"/>
				<stop offset="0.5165" style="stop-color:#EDE1A9"/>
				<stop offset="1" style="stop-color:#A58744"/>
			</linearGradient>
			<circle class="st11" cx="303.6" cy="297.1" r="6.3"/>
			
				<linearGradient id="SVGID_3_" gradientUnits="userSpaceOnUse" x1="303.6" y1="62.0445" x2="303.6" y2="47.3861" gradientTransform="matrix(1 0 0 -1 0 352.7244)">
				<stop offset="0" style="stop-color:#A58744"/>
				<stop offset="0.3409" style="stop-color:#D7C58A"/>
				<stop offset="0.5165" style="stop-color:#EDE1A9"/>
				<stop offset="1" style="stop-color:#A58744"/>
			</linearGradient>
			<path class="st12" d="M309.3,296.7c0,3.1-2.5,5.7-5.7,5.7c-3.1,0-5.7-2.5-5.7-5.7s2.5-5.7,5.7-5.7     C306.8,291.1,309.3,293.6,309.3,296.7z"/>
			<path class="st13" d="M307.9,294c0,0.8-0.6,1.4-1.4,1.4s-1.4-0.6-1.4-1.4s0.6-1.4,1.4-1.4C307.2,292.5,307.9,293.2,307.9,294z"/>
		</g>
	</g>
</g>
<g>
	
		<radialGradient id="SVGID_4_" cx="3199.4722" cy="-23513.8691" r="40.8302" gradientTransform="matrix(0.1598 0 0 -3.040000e-02 -263.0342 -477.6849)" gradientUnits="userSpaceOnUse">
		<stop offset="0" style="stop-color:#231F20"/>
		<stop offset="1" style="stop-color:#717375;stop-opacity:0"/>
	</radialGradient>
	<ellipse class="st14" cx="248.2" cy="237.1" rx="6.5" ry="1.2"/>
	<g>
		<path class="st2" d="M248.8,236.8c0.1,0.2,0,0.5-0.2,0.6l0,0c-0.2,0.1-0.5,0-0.6-0.2l0.1-14.2c-0.1-0.2,0-0.5,0.2-0.6l0,0    c0.2-0.1,0.5,0,0.6,0.2L248.8,236.8z"/>
		<g>
			
				<linearGradient id="SVGID_5_" gradientUnits="userSpaceOnUse" x1="242.1197" y1="133.6244" x2="254.7424" y2="133.6244" gradientTransform="matrix(1 0 0 -1 0 352.7244)">
				<stop offset="0" style="stop-color:#A58744"/>
				<stop offset="0.3409" style="stop-color:#D7C58A"/>
				<stop offset="0.5165" style="stop-color:#EDE1A9"/>
				<stop offset="1" style="stop-color:#A58744"/>
			</linearGradient>
			<circle class="st15" cx="248.4" cy="219.1" r="6.3"/>
			
				<linearGradient id="SVGID_6_" gradientUnits="userSpaceOnUse" x1="248.4" y1="140.0985" x2="248.4" y2="125.44" gradientTransform="matrix(1 0 0 -1 0 352.7244)">
				<stop offset="0" style="stop-color:#A58744"/>
				<stop offset="0.3409" style="stop-color:#D7C58A"/>
				<stop offset="0.5165" style="stop-color:#EDE1A9"/>
				<stop offset="1" style="stop-color:#A58744"/>
			</linearGradient>
			<path class="st16" d="M254.1,218.7c0,3.1-2.5,5.7-5.7,5.7c-3.1,0-5.7-2.5-5.7-5.7s2.5-5.7,5.7-5.7     C251.6,213.1,254.1,215.6,254.1,218.7z"/>
			<path class="st13" d="M252.7,216c0,0.8-0.6,1.4-1.4,1.4s-1.4-0.6-1.4-1.4c0-0.8,0.6-1.4,1.4-1.4C252,214.5,252.7,215.2,252.7,216     z"/>
		</g>
	</g>
</g>
<g>
	
		<radialGradient id="SVGID_7_" cx="3199.4722" cy="-22536.3535" r="40.8302" gradientTransform="matrix(0.1598 0 0 -3.040000e-02 -263.0342 -477.6849)" gradientUnits="userSpaceOnUse">
		<stop offset="0" style="stop-color:#231F20"/>
		<stop offset="1" style="stop-color:#717375;stop-opacity:0"/>
	</radialGradient>
	<ellipse class="st17" cx="248.2" cy="207.4" rx="6.5" ry="1.2"/>
	<g>
		<path class="st2" d="M248.8,207.1c0.1,0.2,0,0.5-0.2,0.6l0,0c-0.2,0.1-0.5,0-0.6-0.2l0.1-14.2c-0.1-0.2,0-0.5,0.2-0.6l0,0    c0.2-0.1,0.5,0,0.6,0.2L248.8,207.1z"/>
		<g>
			
				<linearGradient id="SVGID_8_" gradientUnits="userSpaceOnUse" x1="242.1197" y1="163.3244" x2="254.7424" y2="163.3244" gradientTransform="matrix(1 0 0 -1 0 352.7244)">
				<stop offset="0" style="stop-color:#A58744"/>
				<stop offset="0.3409" style="stop-color:#D7C58A"/>
				<stop offset="0.5165" style="stop-color:#EDE1A9"/>
				<stop offset="1" style="stop-color:#A58744"/>
			</linearGradient>
			<circle class="st18" cx="248.4" cy="189.4" r="6.3"/>
			
				<linearGradient id="SVGID_9_" gradientUnits="userSpaceOnUse" x1="248.4" y1="169.815" x2="248.4" y2="155.1565" gradientTransform="matrix(1 0 0 -1 0 352.7244)">
				<stop offset="0" style="stop-color:#A58744"/>
				<stop offset="0.3409" style="stop-color:#D7C58A"/>
				<stop offset="0.5165" style="stop-color:#EDE1A9"/>
				<stop offset="1" style="stop-color:#A58744"/>
			</linearGradient>
			<path class="st19" d="M254.1,189c0,3.1-2.5,5.7-5.7,5.7c-3.1,0-5.7-2.5-5.7-5.7c0-3.1,2.5-5.7,5.7-5.7S254.1,185.9,254.1,189z"/>
			<path class="st13" d="M252.7,186.2c0,0.8-0.6,1.4-1.4,1.4s-1.4-0.6-1.4-1.4c0-0.8,0.6-1.4,1.4-1.4     C252,184.8,252.7,185.4,252.7,186.2z"/>
		</g>
	</g>
</g>
<g>
	
		<radialGradient id="SVGID_10_" cx="4116.1782" cy="-18779.0039" r="40.8302" gradientTransform="matrix(0.1598 0 0 -3.040000e-02 -263.0342 -477.6849)" gradientUnits="userSpaceOnUse">
		<stop offset="0" style="stop-color:#231F20"/>
		<stop offset="1" style="stop-color:#717375;stop-opacity:0"/>
	</radialGradient>
	<ellipse class="st20" cx="394.7" cy="93.2" rx="6.5" ry="1.2"/>
	<g>
		<path class="st2" d="M395.3,92.9c0.1,0.2,0,0.5-0.2,0.6l0,0c-0.2,0.1-0.5,0-0.6-0.2V79c-0.1-0.2,0-0.5,0.2-0.6l0,0    c0.2-0.1,0.5,0,0.6,0.2V92.9z"/>
		<g>
			
				<linearGradient id="SVGID_11_" gradientUnits="userSpaceOnUse" x1="388.6" y1="277.5244" x2="401.2228" y2="277.5244" gradientTransform="matrix(1 0 0 -1 0 352.7244)">
				<stop offset="0" style="stop-color:#A58744"/>
				<stop offset="0.3409" style="stop-color:#D7C58A"/>
				<stop offset="0.5165" style="stop-color:#EDE1A9"/>
				<stop offset="1" style="stop-color:#A58744"/>
			</linearGradient>
			<circle class="st21" cx="394.9" cy="75.2" r="6.3"/>
			
				<linearGradient id="SVGID_12_" gradientUnits="userSpaceOnUse" x1="394.9" y1="284.0383" x2="394.9" y2="269.3799" gradientTransform="matrix(1 0 0 -1 0 352.7244)">
				<stop offset="0" style="stop-color:#A58744"/>
				<stop offset="0.3409" style="stop-color:#D7C58A"/>
				<stop offset="0.5165" style="stop-color:#EDE1A9"/>
				<stop offset="1" style="stop-color:#A58744"/>
			</linearGradient>
			<path class="st22" d="M400.6,74.8c0,3.1-2.5,5.7-5.7,5.7c-3.1,0-5.7-2.5-5.7-5.7s2.5-5.7,5.7-5.7     C398.1,69.1,400.6,71.7,400.6,74.8z"/>
			<path class="st13" d="M399.2,72c0,0.8-0.6,1.4-1.4,1.4s-1.4-0.6-1.4-1.4s0.6-1.4,1.4-1.4C398.5,70.6,399.2,71.2,399.2,72z"/>
		</g>
	</g>
</g>
<g>
	
		<radialGradient id="SVGID_13_" cx="3977.0603" cy="-18645.8281" r="40.869" gradientTransform="matrix(0.1598 0 0 -3.040000e-02 -263.0342 -477.6849)" gradientUnits="userSpaceOnUse">
		<stop offset="0" style="stop-color:#231F20"/>
		<stop offset="1" style="stop-color:#717375;stop-opacity:0"/>
	</radialGradient>
	<ellipse class="st23" cx="372.5" cy="89.1" rx="6.5" ry="1.2"/>
	<g>
		<path class="st2" d="M373.1,88.8c0.1,0.2,0,0.5-0.2,0.6l0,0c-0.2,0.1-0.5,0-0.6-0.2l0.1-14.2c-0.1-0.2,0-0.5,0.2-0.6l0,0    c0.2-0.1,0.5,0,0.6,0.2L373.1,88.8z"/>
		<g>
			
				<linearGradient id="SVGID_14_" gradientUnits="userSpaceOnUse" x1="366.4" y1="281.6244" x2="379.0228" y2="281.6244" gradientTransform="matrix(1 0 0 -1 0 352.7244)">
				<stop offset="0" style="stop-color:#A58744"/>
				<stop offset="0.3409" style="stop-color:#D7C58A"/>
				<stop offset="0.5165" style="stop-color:#EDE1A9"/>
				<stop offset="1" style="stop-color:#A58744"/>
			</linearGradient>
			<circle class="st24" cx="372.7" cy="71.1" r="6.3"/>
			
				<linearGradient id="SVGID_15_" gradientUnits="userSpaceOnUse" x1="372.7" y1="288.0869" x2="372.7" y2="273.4284" gradientTransform="matrix(1 0 0 -1 0 352.7244)">
				<stop offset="0" style="stop-color:#A58744"/>
				<stop offset="0.3409" style="stop-color:#D7C58A"/>
				<stop offset="0.5165" style="stop-color:#EDE1A9"/>
				<stop offset="1" style="stop-color:#A58744"/>
			</linearGradient>
			<path class="st25" d="M378.4,70.8c0,3.1-2.5,5.7-5.7,5.7c-3.1,0-5.7-2.5-5.7-5.7s2.5-5.7,5.7-5.7     C375.9,65.1,378.4,67.6,378.4,70.8z"/>
			<path class="st13" d="M376.9,68c0,0.8-0.6,1.4-1.4,1.4s-1.4-0.6-1.4-1.4s0.6-1.4,1.4-1.4C376.3,66.5,376.9,67.2,376.9,68z"/>
		</g>
	</g>
</g>
<path class="st32" d="M291.8,259.3c-1.5-2.6,8.4-7.1,12.5-24.6c6-25.4,68.8-127,86.4-145.6c0,0-15.9-9.6-18.2,1.2  c0,0-81.3,98.7-112.5,119.5c-1.2,0.8-2.2,1.4-3.2,2c0,0-8,14.7,0.8,22.1c0,0,14.3,26.2,68.8-5c55-31.6,127.3,109.3-23.2,86.3"/>
<g>
	<g>
		<path class="st2" d="M291.8,259.3c0.1,0.2,0,0.5-0.2,0.6l0,0c-0.2,0.1-0.5,0-0.6-0.2l0.1-14.2c-0.1-0.2,0-0.5,0.2-0.6l0,0    c0.2-0.1,0.5,0,0.6,0.2L291.8,259.3z"/>
		<g>
			
				<linearGradient id="SVGID_17_" gradientUnits="userSpaceOnUse" x1="285.1348" y1="111.1744" x2="297.7576" y2="111.1744" gradientTransform="matrix(1 0 0 -1 0 352.7244)">
				<stop offset="0" style="stop-color:#A58744"/>
				<stop offset="0.3409" style="stop-color:#D7C58A"/>
				<stop offset="0.5165" style="stop-color:#EDE1A9"/>
				<stop offset="1" style="stop-color:#A58744"/>
			</linearGradient>
			<circle class="st27" cx="291.4" cy="241.6" r="6.3"/>
			
				<linearGradient id="SVGID_18_" gradientUnits="userSpaceOnUse" x1="291.4" y1="117.6576" x2="291.4" y2="102.9991" gradientTransform="matrix(1 0 0 -1 0 352.7244)">
				<stop offset="0" style="stop-color:#A58744"/>
				<stop offset="0.3409" style="stop-color:#D7C58A"/>
				<stop offset="0.5165" style="stop-color:#EDE1A9"/>
				<stop offset="1" style="stop-color:#A58744"/>
			</linearGradient>
			<path class="st28" d="M297.1,241.2c0,3.1-2.5,5.7-5.7,5.7c-3.1,0-5.7-2.5-5.7-5.7c0-3.1,2.5-5.7,5.7-5.7     C294.6,235.6,297.1,238.1,297.1,241.2z"/>
			<path class="st13" d="M295.7,238.5c0,0.8-0.6,1.4-1.4,1.4s-1.4-0.6-1.4-1.4c0-0.8,0.6-1.4,1.4-1.4     C295,237,295.7,237.7,295.7,238.5z"/>
		</g>
	</g>
</g>
<g>
	
		<radialGradient id="SVGID_19_" cx="3647.3708" cy="-23354.4863" r="40.8302" gradientTransform="matrix(0.1598 0 0 -3.040000e-02 -263.0342 -477.6849)" gradientUnits="userSpaceOnUse">
		<stop offset="0" style="stop-color:#231F20"/>
		<stop offset="1" style="stop-color:#717375;stop-opacity:0"/>
	</radialGradient>
	<ellipse class="st29" cx="319.8" cy="232.3" rx="6.5" ry="1.2"/>
	<g>
		<path class="st2" d="M320.4,232c0.1,0.2,0,0.5-0.2,0.6l0,0c-0.2,0.1-0.5,0-0.6-0.2l0.1-14.2c-0.1-0.2,0-0.5,0.2-0.6l0,0    c0.2-0.1,0.5,0,0.6,0.2L320.4,232z"/>
		<g>
			
				<linearGradient id="SVGID_20_" gradientUnits="userSpaceOnUse" x1="313.7" y1="138.4244" x2="326.3228" y2="138.4244" gradientTransform="matrix(1 0 0 -1 0 352.7244)">
				<stop offset="0" style="stop-color:#A58744"/>
				<stop offset="0.3409" style="stop-color:#D7C58A"/>
				<stop offset="0.5165" style="stop-color:#EDE1A9"/>
				<stop offset="1" style="stop-color:#A58744"/>
			</linearGradient>
			<circle class="st30" cx="320" cy="214.3" r="6.3"/>
			
				<linearGradient id="SVGID_21_" gradientUnits="userSpaceOnUse" x1="320" y1="144.9438" x2="320" y2="130.2853" gradientTransform="matrix(1 0 0 -1 0 352.7244)">
				<stop offset="0" style="stop-color:#A58744"/>
				<stop offset="0.3409" style="stop-color:#D7C58A"/>
				<stop offset="0.5165" style="stop-color:#EDE1A9"/>
				<stop offset="1" style="stop-color:#A58744"/>
			</linearGradient>
			<path class="st31" d="M325.7,213.9c0,3.1-2.5,5.7-5.7,5.7c-3.1,0-5.7-2.5-5.7-5.7c0-3.1,2.5-5.7,5.7-5.7S325.7,210.8,325.7,213.9     z"/>
			<path class="st13" d="M324.2,211.1c0,0.8-0.6,1.4-1.4,1.4s-1.4-0.6-1.4-1.4c0-0.8,0.6-1.4,1.4-1.4     C323.6,209.7,324.2,210.3,324.2,211.1z"/>
		</g>
	</g>
</g>
<g>
	<text transform="matrix(1 0 0 1 95.7078 -45.5254)" class="st3" style="font-size:36px;">ITINERARY A</text>
</g>
</svg>