<?xml version="1.0" encoding="UTF-8"?>
<!-- Generator: Adobe Illustrator 21.0.0, SVG Export Plug-In . SVG Version: 6.00 Build 0)  -->
<svg class="shadow" version="1.1" id="Capa_1" xmlns="http://www.w3.org/2000/svg" xmlns:xlink="http://www.w3.org/1999/xlink" x="0px" y="0px" viewBox="0 0 565 491" style="enable-background:new 0 0 565 491;" xml:space="preserve">
<style type="text/css">
.shadow{
filter: drop-shadow( 3px 0 2px hsla(0, 0%, 0%, 0.2));
}
	.st0{
	fill:#e0dfdd;
	
	}
	
	
	.st1{fill:none;stroke:#e0dfdd;stroke-miterlimit:10; }
	.st2{fill:#ffffff;}
	.st3{font-family:'ArialMT';}
	.st4{font-size:14px;}
	.st5{fill:#ffffff;}
	.st6{font-size:12px;}
	.st7{fill:#ffffff;}
	.st8{font-size:9.6955px;}
	.st9{opacity:0.5;fill:url(#SVGID_1_);enable-background:new    ;}
	.st10{fill:#a9a5a5;}
	.st11{fill:url(#SVGID_2_);}
	.st12{fill:url(#SVGID_3_);}
	.st13{opacity:0.6;fill:#FFFFFF;enable-background:new    ;}
	.st14{opacity:0.5;fill:url(#SVGID_4_);enable-background:new    ;}
	.st15{fill:url(#SVGID_5_);}
	.st16{fill:url(#SVGID_6_);}
	.st17{opacity:0.5;fill:url(#SVGID_7_);enable-background:new    ;}
	.st18{fill:url(#SVGID_8_);}
	.st19{fill:url(#SVGID_9_);}
	.st20{opacity:0.5;fill:url(#SVGID_10_);enable-background:new    ;}
	.st21{fill:url(#SVGID_11_);}
	.st22{fill:url(#SVGID_12_);}
	.st23{opacity:0.5;fill:url(#SVGID_13_);enable-background:new    ;}
	.st24{fill:url(#SVGID_14_);}
	.st25{fill:url(#SVGID_15_);}
	.st26{opacity:0.5;fill:url(#SVGID_16_);enable-background:new    ;}
	.st27{fill:url(#SVGID_17_);}
	.st28{fill:url(#SVGID_18_);}
	.st29{opacity:0.5;fill:url(#SVGID_19_);enable-background:new    ;}
	.st30{fill:url(#SVGID_20_);}
	.st31{fill:url(#SVGID_21_);}
	.st32{opacity:0.5;fill:url(#SVGID_22_);enable-background:new    ;}
	.st33{fill:url(#SVGID_23_);}
	.st34{fill:url(#SVGID_24_);}
	.st35{opacity:0.5;fill:url(#SVGID_25_);enable-background:new    ;}
	.st36{fill:url(#SVGID_26_);}
	.st37{fill:url(#SVGID_27_);}
	.st38{opacity:0.5;fill:url(#SVGID_28_);enable-background:new    ;}
	.st39{fill:url(#SVGID_29_);}
	.st40{fill:url(#SVGID_30_);}
	.st41{fill:none;stroke:#12c5bf;stroke-miterlimit:10;
	stroke-dasharray: 2000;
		stroke-dashoffset:0;
		-webkit-animation: dash 15s linear forwards infinite;
		-o-animation:dash 15s linear forwards infinite;
		-moz-animation: dash 10s linear forwards infinite;
		animation: dash 15s linear forwards infinite;
	}
		
	@-webkit-keyframes dash{
		from{
			stroke-dashoffset:2000;
		}
		to{
			stroke-dashoffset:0;
		}
	}
	
</style>
<g>
	<g>
		<polygon class="st0" points="44.9,167.2 37.5,156.3 52.8,148.9 61.7,134.1 77.1,130.6 90.9,119.7 98.4,125.1 106.3,144.4     121.6,159.3 125.1,167.2 125.1,189 127.6,202.4 141.9,215.7 144.9,218.2 141.9,221.7 160.2,231.5 177.6,250.4 177.6,272.1     170.6,279.1 177.6,279.1 175.6,284 180.5,289.5 189.4,286.5 200.8,303.3 209.7,314.2 214.7,316.7 210.7,324.6 203.8,325.6     199.3,342.9 200.3,352.8 189.9,354.3 187.5,360.2 178,364.2 167.7,361.2 162.2,367.6 128.1,381 118.7,381 115.7,377 101.8,374.6     84,375.6 70.7,369.6 68.2,359.2 59.8,356.8 55.3,350.3 60.3,338 94.9,308.8 96.4,302.8 111.7,303.3 117.7,298.4 129.1,301.3     148.8,290.4 149.3,282 127.6,264.7 117.2,254.8 117.2,241.9 100.8,230.1 92.4,226.1 86,212.7 83,212.2 81.1,200.9 84,198.4     78.1,188.5 79.1,167.2 73.1,158.8 62.7,158.8 55.3,164.2 49.9,164.2   "/>
		<polygon class="st0" points="33.7,261.1 44.1,261.1 53.5,265.1 72.3,263.1 80.8,255.2 79.3,249.2 82.7,241.3 82.7,231.9 76.3,221     65.9,213.1 58,213.1 54,218.1 47.1,219.1 40.2,221.5 26.3,221 21.4,222.5 21.4,228.5 24.3,232.4 24.3,244.3   "/>
		<polygon class="st0" points="202.3,226.6 208.7,227.6 211.7,225.1 219.6,231.1 225.6,232.5 233,232.5 238.4,230.6 246.3,235     252.3,237.5 258.2,233.5 259.7,226.6 263.7,225.1 265.1,222.1 260.2,217.7 257.7,207.8 243.4,198.4 235.5,195.9 232.5,195.9     228,192 222.6,192 218.6,186.5 208.7,186.5 202.3,193.4 203.8,199.9 198.3,206.8 194.4,207.3 194.4,213.7 200.8,214.7     201.8,219.7   "/>
		<polygon class="st0" points="438.4,438.8 443.8,434.9 454.7,433.4 461.6,437.8 464.6,442.8 462.6,447.2 456.7,445.8 452.2,447.2     448.3,444.3 441.8,442.8   "/>
		<path class="st0" d="M268.1,306.3c0,0,12.4,4.9,13.4,5.4s5.4,4.5,5.4,4.5l8.4,4.5l10.9,1l5.4-2.5l4.9,1v-4.9l12.4,1l4.5-2.5    l1.5-7.4h4.5l4.9-7.9l-2.5-4l2.5-5.4V284l2-5.9l-13.4-8.9l-4-9.4l-15.8,2h-9.4l1.5,4l-12.9-2l-16.3,4.9l-9.4,8.9l-1.5,12.9    L268.1,306.3z"/>
		<polygon class="st0" points="464.1,353.3 484.9,362.2 493.8,357.7 505.7,355.8 513.6,353.3 519.5,340.9 522.5,332 530.9,330.5     543.8,315.7 547.2,310.7 542.8,304.3 538.8,306.8 527.4,304.3 521.5,302.3 520,307.3 503.7,314.7 497.2,328.1 493.3,332     486.9,332 481.4,330.5 481.9,336 478.9,338.9 470,344.9 464.1,348.8   "/>
		<polygon class="st0" points="288.4,436.8 297.8,431.4 301.3,425.5 305.2,422.5 306.2,415.6 292.9,408.6 289.4,405.7 284,409.6     279,407.6 276.5,417.5 273.6,423.5 272.1,427.9 275.5,431.4 280.5,434.9   "/>
		<path class="st0" d="M266.1,88.5L273,91l4.5,4.9l3,0.5l5.4-2l6.4-2l3.5-4c0,0,1-4,1-3.5s-8.4-7.9-8.4-7.9l-2-0.5l-2-3.5l-9.4-1    l-6.9,4l-3,4L266.1,88.5z"/>
		<polygon class="st0" points="227,39.5 227.5,33.6 224.6,25.7 220.1,21.7 218.6,18.7 215.2,17.3 212.7,19.2 212.7,27.2 213.7,29.6     213.7,36.1 219.1,39   "/>
		<polygon class="st0" points="389.9,89.6 390.9,87.5 394.5,87.5 394.8,90.8 393,91.4 394.8,93.9 397.5,91.7 399.3,87.5 398.7,82     393.3,79 390.2,80.8 386.6,80.2 386,87.5 386.6,89.3   "/>
		<path class="st0" d="M237.2,280.1c-0.6,0-4.5,2.6-4.5,2.6v4.5l1.3,2.6l3.2,0.6l1.3,2.6l3.2-1.3l3.2-1.3l0.6-3.9l-3.2-3.9l-2.6-2.6    L237.2,280.1L237.2,280.1z"/>
		<polygon class="st0" points="230.4,249.7 232.9,247.9 233.5,244.8 231.6,242.9 229.8,241.7 228.6,241.7 228.6,244.2 227.3,245.4     226.7,247.9 228,249.7   "/>
		<polygon class="st0" points="363.1,333.5 366.6,333.5 371.1,336 374,336 376,336 377,333.5 376.5,332 377,330.5 374.5,328.1     365.1,327.6 363.1,327.6 363.6,329 365.6,329.5 364.6,331.5 362.6,331.5   "/>
		<polyline class="st0" points="319.9,253.4 325.8,253.4 329.9,250.3 323.6,237.1 319.9,239.4 321.7,246.2 319.9,249.3 319.9,252.5       "/>
		<g>
			
				<rect x="266.4" y="212.8" transform="matrix(0.6088 -0.7933 0.7933 0.6088 -65.1179 296.1598)" class="st0" width="2.7" height="2.7"/>
		</g>
		<g>
			
				<rect x="265.1" y="233.1" transform="matrix(0.6088 -0.7933 0.7933 0.6088 -81.7791 303.1038)" class="st0" width="2.7" height="2.7"/>
		</g>
		<g>
			
				<rect x="319.1" y="232.7" transform="matrix(0.6088 -0.7933 0.7933 0.6088 -60.3094 345.7388)" class="st0" width="2.7" height="2.7"/>
		</g>
		<g>
			<polygon class="st0" points="359.2,279.3 355.2,278.1 358.7,275.6 362.7,278.1    "/>
		</g>
		<g>
			<polygon class="st0" points="358.7,286.8 356.6,285.2 359.6,283.4 362.3,284.8    "/>
		</g>
	</g>
</g>
<g>
	<g>
		<polygon class="st1" points="44.9,167.2 37.5,156.3 52.8,148.9 61.7,134.1 77.1,130.6 90.9,119.7 98.4,125.1 106.3,144.4     121.6,159.3 125.1,167.2 125.1,189 127.6,202.4 141.9,215.7 144.9,218.2 141.9,221.7 160.2,231.5 177.6,250.4 177.6,272.1     170.6,279.1 177.6,279.1 175.6,284 180.5,289.5 189.4,286.5 200.8,303.3 209.7,314.2 214.7,316.7 210.7,324.6 203.8,325.6     199.3,342.9 200.3,352.8 189.9,354.3 187.5,360.2 178,364.2 167.7,361.2 162.2,367.6 128.1,381 118.7,381 115.7,377 101.8,374.6     84,375.6 70.7,369.6 68.2,359.2 59.8,356.8 55.3,350.3 60.3,338 94.9,308.8 96.4,302.8 111.7,303.3 117.7,298.4 129.1,301.3     148.8,290.4 149.3,282 127.6,264.7 117.2,254.8 117.2,241.9 100.8,230.1 92.4,226.1 86,212.7 83,212.2 81.1,200.9 84,198.4     78.1,188.5 79.1,167.2 73.1,158.8 62.7,158.8 55.3,164.2 49.9,164.2   "/>
		<polygon class="st1" points="33.7,261.1 44.1,261.1 53.5,265.1 72.3,263.1 80.8,255.2 79.3,249.2 82.7,241.3 82.7,231.9 76.3,221     65.9,213.1 58,213.1 54,218.1 47.1,219.1 40.2,221.5 26.3,221 21.4,222.5 21.4,228.5 24.3,232.4 24.3,244.3   "/>
		<polygon class="st1" points="202.3,226.6 208.7,227.6 211.7,225.1 219.6,231.1 225.6,232.5 233,232.5 238.4,230.6 246.3,235     252.3,237.5 258.2,233.5 259.7,226.6 263.7,225.1 265.1,222.1 260.2,217.7 257.7,207.8 243.4,198.4 235.5,195.9 232.5,195.9     228,192 222.6,192 218.6,186.5 208.7,186.5 202.3,193.4 203.8,199.9 198.3,206.8 194.4,207.3 194.4,213.7 200.8,214.7     201.8,219.7   "/>
		<polygon class="st1" points="438.4,438.8 443.8,434.9 454.7,433.4 461.6,437.8 464.6,442.8 462.6,447.2 456.7,445.8 452.2,447.2     448.3,444.3 441.8,442.8   "/>
		<path class="st1" d="M268.1,306.3c0,0,12.4,4.9,13.4,5.4s5.4,4.5,5.4,4.5l8.4,4.5l10.9,1l5.4-2.5l4.9,1v-4.9l12.4,1l4.5-2.5    l1.5-7.4h4.5l4.9-7.9l-2.5-4l2.5-5.4V284l2-5.9l-13.4-8.9l-4-9.4l-15.8,2h-9.4l1.5,4l-12.9-2l-16.3,4.9l-9.4,8.9l-1.5,12.9    L268.1,306.3z"/>
		<polygon class="st1" points="464.1,353.3 484.9,362.2 493.8,357.7 505.7,355.8 513.6,353.3 519.5,340.9 522.5,332 530.9,330.5     543.8,315.7 547.2,310.7 542.8,304.3 538.8,306.8 527.4,304.3 521.5,302.3 520,307.3 503.7,314.7 497.2,328.1 493.3,332     486.9,332 481.4,330.5 481.9,336 478.9,338.9 470,344.9 464.1,348.8   "/>
		<polygon class="st1" points="288.4,436.8 297.8,431.4 301.3,425.5 305.2,422.5 306.2,415.6 292.9,408.6 289.4,405.7 284,409.6     279,407.6 276.5,417.5 273.6,423.5 272.1,427.9 275.5,431.4 280.5,434.9   "/>
		<path class="st1" d="M266.1,88.5L273,91l4.5,4.9l3,0.5l5.4-2l6.4-2l3.5-4c0,0,1-4,1-3.5s-8.4-7.9-8.4-7.9l-2-0.5l-2-3.5l-9.4-1    l-6.9,4l-3,4L266.1,88.5z"/>
		<polygon class="st1" points="227,39.5 227.5,33.6 224.6,25.7 220.1,21.7 218.6,18.7 215.2,17.3 212.7,19.2 212.7,27.2 213.7,29.6     213.7,36.1 219.1,39   "/>
		<polygon class="st1" points="389.9,89.6 390.9,87.5 394.5,87.5 394.8,90.8 393,91.4 394.8,93.9 397.5,91.7 399.3,87.5 398.7,82     393.3,79 390.2,80.8 386.6,80.2 386,87.5 386.6,89.3   "/>
		<path class="st1" d="M237.2,280.1c-0.6,0-4.5,2.6-4.5,2.6v4.5l1.3,2.6l3.2,0.6l1.3,2.6l3.2-1.3l3.2-1.3l0.6-3.9l-3.2-3.9l-2.6-2.6    L237.2,280.1L237.2,280.1z"/>
		<polygon class="st1" points="230.4,249.7 232.9,247.9 233.5,244.8 231.6,242.9 229.8,241.7 228.6,241.7 228.6,244.2 227.3,245.4     226.7,247.9 228,249.7   "/>
		<polygon class="st1" points="363.1,333.5 366.6,333.5 371.1,336 374,336 376,336 377,333.5 376.5,332 377,330.5 374.5,328.1     365.1,327.6 363.1,327.6 363.6,329 365.6,329.5 364.6,331.5 362.6,331.5   "/>
		<polyline class="st1" points="319.9,253.4 325.8,253.4 329.9,250.3 323.6,237.1 319.9,239.4 321.7,246.2 319.9,249.3 319.9,252.5       "/>
		<g>
			
				<rect x="266.4" y="212.8" transform="matrix(0.6088 -0.7933 0.7933 0.6088 -65.1179 296.1598)" class="st1" width="2.7" height="2.7"/>
		</g>
		<g>
			
				<rect x="265.1" y="233.1" transform="matrix(0.6088 -0.7933 0.7933 0.6088 -81.7791 303.1038)" class="st1" width="2.7" height="2.7"/>
		</g>
		<g>
			
				<rect x="319.1" y="232.7" transform="matrix(0.6088 -0.7933 0.7933 0.6088 -60.3094 345.7388)" class="st1" width="2.7" height="2.7"/>
		</g>
		<g>
			<polygon class="st1" points="359.2,279.3 355.2,278.1 358.7,275.6 362.7,278.1    "/>
		</g>
		<g>
			<polygon class="st1" points="358.7,286.8 356.6,285.2 359.6,283.4 362.3,284.8    "/>
		</g>
	</g>
</g>
<g>
	<text transform="matrix(1 0 0 1 433.9375 377.181)" class="st2 st3 st4">San Cristobal</text>
</g>
<g>
	<text transform="matrix(1 0 0 1 347.5068 349.0296)" class="st5 st3 st6">Santa Fe</text>
</g>
<g>
	<text transform="matrix(1 0 0 1 380.0042 442.9593)" class="st2 st3 st4">Española</text>
</g>
<g>
	<text transform="matrix(1 0 0 1 217.3059 428.4612)" class="st2 st3 st4">Floreana</text>
</g>
<g>
	<text transform="matrix(1 0 0 1 229.3574 28.9652)" class="st2 st3 st4">Pinta</text>
</g>
<g>
	<text transform="matrix(1 0 0 1 197.1396 88.5687)" class="st2 st3 st4">Marchena</text>
</g>
<g>
	<text transform="matrix(1 0 0 1 332.6454 75.0306)" class="st2 st3 st4">Genovesa</text>
</g>
<g>
	<text transform="matrix(1 0 0 1 19.9418 278.6507)" class="st2 st3 st4">Fernandina</text>
</g>
<g>
	<text transform="matrix(1 0 0 1 293.7763 279.1764)" class="st7 st3 st8">Bachas</text>
	<text transform="matrix(1 0 0 1 296.1763 290.4764)" class="st7 st3 st8">Beach</text>
</g>
<g>
	<text transform="matrix(1 0 0 1 239.2373 326.0683)" class="st7 st3 st8">Highlands</text>
</g>
<g>
	<text transform="matrix(1 0 0 1 34.7679 298.8734)" class="st7 st3 st8">Moreno Point</text>
</g>
<g>
	<text transform="matrix(1 0 0 1 150.4716 298.8743)" class="st7 st3 st8">Elizabeth</text>
	<text transform="matrix(1 0 0 1 162.0716 310.1743)" class="st7 st3 st8">Bay</text>
</g>
<g>
	<text transform="matrix(1 0 0 1 84.5732 245.136)" class="st7 st3 st8">Urbina</text>
	<text transform="matrix(1 0 0 1 90.7732 256.436)" class="st7 st3 st8">Bay</text>
</g>
<g>
	<text transform="matrix(1 0 0 1 188.9218 163.5631)" class="st7 st3 st8">Espumilla</text>
	<text transform="matrix(1 0 0 1 195.9218 174.8631)" class="st7 st3 st8">Beach</text>
</g>
<g>
	<text transform="matrix(1 0 0 1 165.7499 212.0579)" class="st7 st3 st8">Egas</text>
	<text transform="matrix(1 0 0 1 168.1499 223.3579)" class="st7 st3 st8">Port</text>
</g>
<g>
	<text transform="matrix(1 0 0 1 46.498 176.6126)" class="st7 st3 st8">Tagus</text>
	<text transform="matrix(1 0 0 1 48.698 187.9126)" class="st7 st3 st8">Cove</text>
</g>
<g>
	<text transform="matrix(1 0 0 1 18.0966 123.7366)" class="st7 st3 st8">Vicente</text>
	<text transform="matrix(1 0 0 1 22.8966 135.0366)" class="st7 st3 st8">Roca</text>
	<text transform="matrix(1 0 0 1 23.4966 146.3366)" class="st7 st3 st8">Point</text>
</g>
<g>
	<text transform="matrix(1 0 0 1 19.3393 204.0013)" class="st7 st3 st8">Espinoza</text>
	<text transform="matrix(1 0 0 1 28.5393 215.3013)" class="st7 st3 st8">Point</text>
</g>
<g>
	<text transform="matrix(1 0 0 1 66.1557 100.0413)" class="st2 st3 st4">Isabela</text>
</g>
<g>
	<text transform="matrix(1 0 0 1 245.9208 196.8587)" class="st2 st3 st4">Santiago</text>
</g>
<g>
	<text transform="matrix(1 0 0 1 344.6819 318.4417)" class="st2 st3 st4">Santa Cruz</text>
</g>
<g>
	<text transform="matrix(1 0 0 1 343.4449 270.0677)" class="st2 st3 st4">Baltra</text>
</g>
<g>
	<text transform="matrix(1 0 0 1 26.0887 453.3441)" class="st5 st3 st4">ITINERARY B</text>
</g>
<g>
	
		<radialGradient id="SVGID_1_" cx="-5370.9185" cy="-5825.1387" r="40.8302" gradientTransform="matrix(0.1598 0 0 -3.040000e-02 912.9887 -24.0109)" gradientUnits="userSpaceOnUse">
		<stop offset="0" style="stop-color:#221E1F"/>
		<stop offset="1" style="stop-color:#717375;stop-opacity:0"/>
	</radialGradient>
	<ellipse class="st9" cx="54.7" cy="153.1" rx="6.5" ry="1.2"/>
	<g>
		<path class="st10" d="M55.3,152.7c0.1,0.2,0,0.5-0.2,0.6l0,0c-0.2,0.1-0.5,0-0.6-0.2l0.1-14.2c-0.1-0.2,0-0.5,0.2-0.6l0,0    c0.2-0.1,0.5,0,0.6,0.2L55.3,152.7z"/>
		<g>
			
				<linearGradient id="SVGID_2_" gradientUnits="userSpaceOnUse" x1="48.6" y1="358" x2="61.2228" y2="358" gradientTransform="matrix(1 0 0 -1 0 493)">
				<stop offset="0" style="stop-color:#A18444"/>
				<stop offset="0.3409" style="stop-color:#D2C088"/>
				<stop offset="0.5165" style="stop-color:#E7DCA7"/>
				<stop offset="1" style="stop-color:#A18444"/>
			</linearGradient>
			<circle class="st11" cx="54.9" cy="135" r="6.3"/>
			
				<linearGradient id="SVGID_3_" gradientUnits="userSpaceOnUse" x1="54.9" y1="364.4375" x2="54.9" y2="349.779" gradientTransform="matrix(1 0 0 -1 0 493)">
				<stop offset="0" style="stop-color:#A18444"/>
				<stop offset="0.3409" style="stop-color:#D2C088"/>
				<stop offset="0.5165" style="stop-color:#E7DCA7"/>
				<stop offset="1" style="stop-color:#A18444"/>
			</linearGradient>
			<path class="st12" d="M60.6,134.7c0,3.1-2.5,5.7-5.7,5.7c-3.1,0-5.7-2.5-5.7-5.7c0-3.1,2.5-5.7,5.7-5.7S60.6,131.5,60.6,134.7z"/>
			<path class="st13" d="M59.1,131.9c0,0.8-0.6,1.4-1.4,1.4c-0.8,0-1.4-0.6-1.4-1.4c0-0.8,0.6-1.4,1.4-1.4S59.1,131.1,59.1,131.9z"/>
		</g>
	</g>
</g>
<g>
	
		<radialGradient id="SVGID_4_" cx="-5172.793" cy="-7122.8701" r="40.8302" gradientTransform="matrix(0.1598 0 0 -3.040000e-02 912.9887 -24.0109)" gradientUnits="userSpaceOnUse">
		<stop offset="0" style="stop-color:#221E1F"/>
		<stop offset="1" style="stop-color:#717375;stop-opacity:0"/>
	</radialGradient>
	<ellipse class="st14" cx="86.4" cy="192.5" rx="6.5" ry="1.2"/>
	<g>
		<path class="st10" d="M86.9,192.2c0.1,0.2,0,0.5-0.2,0.6l0,0c-0.2,0.1-0.5,0-0.6-0.2l0.1-14.2c-0.1-0.2,0-0.5,0.2-0.6l0,0    c0.2-0.1,0.5,0,0.6,0.2L86.9,192.2z"/>
		<g>
			
				<linearGradient id="SVGID_5_" gradientUnits="userSpaceOnUse" x1="80.2547" y1="318.5" x2="92.8774" y2="318.5" gradientTransform="matrix(1 0 0 -1 0 493)">
				<stop offset="0" style="stop-color:#A18444"/>
				<stop offset="0.3409" style="stop-color:#D2C088"/>
				<stop offset="0.5165" style="stop-color:#E7DCA7"/>
				<stop offset="1" style="stop-color:#A18444"/>
			</linearGradient>
			<circle class="st15" cx="86.6" cy="174.5" r="6.3"/>
			
				<linearGradient id="SVGID_6_" gradientUnits="userSpaceOnUse" x1="86.6" y1="324.9865" x2="86.6" y2="310.328" gradientTransform="matrix(1 0 0 -1 0 493)">
				<stop offset="0" style="stop-color:#A18444"/>
				<stop offset="0.3409" style="stop-color:#D2C088"/>
				<stop offset="0.5165" style="stop-color:#E7DCA7"/>
				<stop offset="1" style="stop-color:#A18444"/>
			</linearGradient>
			<path class="st16" d="M92.3,174.1c0,3.1-2.5,5.7-5.7,5.7c-3.1,0-5.7-2.5-5.7-5.7s2.5-5.7,5.7-5.7C89.7,168.5,92.3,171,92.3,174.1     z"/>
			<path class="st13" d="M90.8,171.4c0,0.8-0.6,1.4-1.4,1.4c-0.8,0-1.4-0.6-1.4-1.4c0-0.8,0.6-1.4,1.4-1.4     C90.2,169.9,90.8,170.6,90.8,171.4z"/>
		</g>
	</g>
</g>
<g>
	
		<radialGradient id="SVGID_7_" cx="-5302.3857" cy="-7892.3945" r="40.8302" gradientTransform="matrix(0.1598 0 0 -3.040000e-02 912.9887 -24.0109)" gradientUnits="userSpaceOnUse">
		<stop offset="0" style="stop-color:#221E1F"/>
		<stop offset="1" style="stop-color:#717375;stop-opacity:0"/>
	</radialGradient>
	<ellipse class="st17" cx="65.7" cy="215.9" rx="6.5" ry="1.2"/>
	<g>
		<path class="st10" d="M66.2,215.6c0.1,0.2,0,0.5-0.2,0.6l0,0c-0.2,0.1-0.5,0-0.6-0.2l0.1-14.2c-0.1-0.2,0-0.5,0.2-0.6l0,0    c0.2-0.1,0.5,0,0.6,0.2L66.2,215.6z"/>
		<g>
			
				<linearGradient id="SVGID_8_" gradientUnits="userSpaceOnUse" x1="59.5458" y1="295.1" x2="72.1685" y2="295.1" gradientTransform="matrix(1 0 0 -1 0 493)">
				<stop offset="0" style="stop-color:#A18444"/>
				<stop offset="0.3409" style="stop-color:#D2C088"/>
				<stop offset="0.5165" style="stop-color:#E7DCA7"/>
				<stop offset="1" style="stop-color:#A18444"/>
			</linearGradient>
			<circle class="st18" cx="65.9" cy="197.9" r="6.3"/>
			
				<linearGradient id="SVGID_9_" gradientUnits="userSpaceOnUse" x1="65.9" y1="301.5929" x2="65.9" y2="286.9345" gradientTransform="matrix(1 0 0 -1 0 493)">
				<stop offset="0" style="stop-color:#A18444"/>
				<stop offset="0.3409" style="stop-color:#D2C088"/>
				<stop offset="0.5165" style="stop-color:#E7DCA7"/>
				<stop offset="1" style="stop-color:#A18444"/>
			</linearGradient>
			<path class="st19" d="M71.6,197.5c0,3.1-2.5,5.7-5.7,5.7c-3.1,0-5.7-2.5-5.7-5.7c0-3.1,2.5-5.7,5.7-5.7     C69,191.8,71.6,194.4,71.6,197.5z"/>
			<path class="st13" d="M70.1,194.7c0,0.8-0.6,1.4-1.4,1.4c-0.8,0-1.4-0.6-1.4-1.4c0-0.8,0.6-1.4,1.4-1.4     C69.4,193.3,70.1,193.9,70.1,194.7z"/>
		</g>
	</g>
</g>
<g>
	
		<radialGradient id="SVGID_10_" cx="-4986.1626" cy="-8934.8428" r="40.8355" gradientTransform="matrix(0.1598 0 0 -3.040000e-02 912.9887 -24.0109)" gradientUnits="userSpaceOnUse">
		<stop offset="0" style="stop-color:#221E1F"/>
		<stop offset="1" style="stop-color:#717375;stop-opacity:0"/>
	</radialGradient>
	<ellipse class="st20" cx="116.2" cy="247.6" rx="6.5" ry="1.2"/>
	<g>
		<path class="st10" d="M116.8,247.3c0.1,0.2,0,0.5-0.2,0.6l0,0c-0.2,0.1-0.5,0-0.6-0.2l0.1-14.2c-0.1-0.2,0-0.5,0.2-0.6l0,0    c0.2-0.1,0.5,0,0.6,0.2L116.8,247.3z"/>
		<g>
			
				<linearGradient id="SVGID_11_" gradientUnits="userSpaceOnUse" x1="110.0799" y1="263.4" x2="122.7026" y2="263.4" gradientTransform="matrix(1 0 0 -1 0 493)">
				<stop offset="0" style="stop-color:#A18444"/>
				<stop offset="0.3409" style="stop-color:#D2C088"/>
				<stop offset="0.5165" style="stop-color:#E7DCA7"/>
				<stop offset="1" style="stop-color:#A18444"/>
			</linearGradient>
			<circle class="st21" cx="116.4" cy="229.6" r="6.3"/>
			
				<linearGradient id="SVGID_12_" gradientUnits="userSpaceOnUse" x1="116.4" y1="269.9025" x2="116.4" y2="255.244" gradientTransform="matrix(1 0 0 -1 0 493)">
				<stop offset="0" style="stop-color:#A18444"/>
				<stop offset="0.3409" style="stop-color:#D2C088"/>
				<stop offset="0.5165" style="stop-color:#E7DCA7"/>
				<stop offset="1" style="stop-color:#A18444"/>
			</linearGradient>
			<path class="st22" d="M122.1,229.2c0,3.1-2.5,5.7-5.7,5.7c-3.1,0-5.7-2.5-5.7-5.7c0-3.1,2.5-5.7,5.7-5.7S122.1,226.1,122.1,229.2     z"/>
			<path class="st13" d="M120.6,226.4c0,0.8-0.6,1.4-1.4,1.4c-0.8,0-1.4-0.6-1.4-1.4c0-0.8,0.6-1.4,1.4-1.4S120.6,225.6,120.6,226.4     z"/>
		</g>
	</g>
</g>
<g>
	
		<radialGradient id="SVGID_13_" cx="-5012.0464" cy="-10698.4238" r="40.8302" gradientTransform="matrix(0.1598 0 0 -3.040000e-02 912.9887 -24.0109)" gradientUnits="userSpaceOnUse">
		<stop offset="0" style="stop-color:#221E1F"/>
		<stop offset="1" style="stop-color:#717375;stop-opacity:0"/>
	</radialGradient>
	<ellipse class="st23" cx="112.1" cy="301.2" rx="6.5" ry="1.2"/>
	<g>
		<path class="st10" d="M112.6,300.9c0.1,0.2,0,0.5-0.2,0.6l0,0c-0.2,0.1-0.5,0-0.6-0.2l0.1-14.2c-0.1-0.2,0-0.5,0.2-0.6l0,0    c0.2-0.1,0.5,0,0.6,0.2L112.6,300.9z"/>
		<g>
			
				<linearGradient id="SVGID_14_" gradientUnits="userSpaceOnUse" x1="105.942" y1="209.8" x2="118.5648" y2="209.8" gradientTransform="matrix(1 0 0 -1 0 493)">
				<stop offset="0" style="stop-color:#A18444"/>
				<stop offset="0.3409" style="stop-color:#D2C088"/>
				<stop offset="0.5165" style="stop-color:#E7DCA7"/>
				<stop offset="1" style="stop-color:#A18444"/>
			</linearGradient>
			<circle class="st24" cx="112.3" cy="283.2" r="6.3"/>
			
				<linearGradient id="SVGID_15_" gradientUnits="userSpaceOnUse" x1="112.3" y1="216.2897" x2="112.3" y2="201.6312" gradientTransform="matrix(1 0 0 -1 0 493)">
				<stop offset="0" style="stop-color:#A18444"/>
				<stop offset="0.3409" style="stop-color:#D2C088"/>
				<stop offset="0.5165" style="stop-color:#E7DCA7"/>
				<stop offset="1" style="stop-color:#A18444"/>
			</linearGradient>
			<path class="st25" d="M118,282.8c0,3.1-2.5,5.7-5.7,5.7c-3.1,0-5.7-2.5-5.7-5.7c0-3.1,2.5-5.7,5.7-5.7     C115.4,277.1,118,279.7,118,282.8z"/>
			<path class="st13" d="M116.5,280c0,0.8-0.6,1.4-1.4,1.4c-0.8,0-1.4-0.6-1.4-1.4s0.6-1.4,1.4-1.4     C115.8,278.6,116.5,279.2,116.5,280z"/>
		</g>
	</g>
</g>
<g>
	
		<radialGradient id="SVGID_16_" cx="-4759.6289" cy="-10277.5176" r="40.8661" gradientTransform="matrix(0.1598 0 0 -3.040000e-02 912.9887 -24.0109)" gradientUnits="userSpaceOnUse">
		<stop offset="0" style="stop-color:#221E1F"/>
		<stop offset="1" style="stop-color:#717375;stop-opacity:0"/>
	</radialGradient>
	<ellipse class="st26" cx="152.4" cy="288.4" rx="6.5" ry="1.2"/>
	<g>
		<path class="st10" d="M153,288.1c0.1,0.2,0,0.5-0.2,0.6l0,0c-0.2,0.1-0.5,0-0.6-0.2l0.1-14.2c-0.1-0.2,0-0.5,0.2-0.6l0,0    c0.2-0.1,0.5,0,0.6,0.2L153,288.1z"/>
		<g>
			
				<linearGradient id="SVGID_17_" gradientUnits="userSpaceOnUse" x1="146.3" y1="222.6" x2="158.9228" y2="222.6" gradientTransform="matrix(1 0 0 -1 0 493)">
				<stop offset="0" style="stop-color:#A18444"/>
				<stop offset="0.3409" style="stop-color:#D2C088"/>
				<stop offset="0.5165" style="stop-color:#E7DCA7"/>
				<stop offset="1" style="stop-color:#A18444"/>
			</linearGradient>
			<circle class="st27" cx="152.6" cy="270.4" r="6.3"/>
			
				<linearGradient id="SVGID_18_" gradientUnits="userSpaceOnUse" x1="152.6" y1="229.0852" x2="152.6" y2="214.4267" gradientTransform="matrix(1 0 0 -1 0 493)">
				<stop offset="0" style="stop-color:#A18444"/>
				<stop offset="0.3409" style="stop-color:#D2C088"/>
				<stop offset="0.5165" style="stop-color:#E7DCA7"/>
				<stop offset="1" style="stop-color:#A18444"/>
			</linearGradient>
			<path class="st28" d="M158.3,270c0,3.1-2.5,5.7-5.7,5.7c-3.1,0-5.7-2.5-5.7-5.7s2.5-5.7,5.7-5.7     C155.8,264.4,158.3,266.9,158.3,270z"/>
			<path class="st13" d="M156.8,267.3c0,0.8-0.6,1.4-1.4,1.4c-0.8,0-1.4-0.6-1.4-1.4s0.6-1.4,1.4-1.4     C156.2,265.8,156.8,266.5,156.8,267.3z"/>
		</g>
	</g>
</g>
<g>
	
		<radialGradient id="SVGID_19_" cx="-3881.6567" cy="-11248.1572" r="40.8286" gradientTransform="matrix(0.1598 0 0 -3.040000e-02 912.9887 -24.0109)" gradientUnits="userSpaceOnUse">
		<stop offset="0" style="stop-color:#221E1F"/>
		<stop offset="1" style="stop-color:#717375;stop-opacity:0"/>
	</radialGradient>
	<ellipse class="st29" cx="292.7" cy="317.9" rx="6.5" ry="1.2"/>
	<g>
		<path class="st10" d="M293.3,317.6c0.1,0.2,0,0.5-0.2,0.6l0,0c-0.2,0.1-0.5,0-0.6-0.2l0.1-14.2c-0.1-0.2,0-0.5,0.2-0.6l0,0    c0.2-0.1,0.5,0,0.6,0.2L293.3,317.6z"/>
		<g>
			
				<linearGradient id="SVGID_20_" gradientUnits="userSpaceOnUse" x1="286.5778" y1="193.1" x2="299.2005" y2="193.1" gradientTransform="matrix(1 0 0 -1 0 493)">
				<stop offset="0" style="stop-color:#A18444"/>
				<stop offset="0.3409" style="stop-color:#D2C088"/>
				<stop offset="0.5165" style="stop-color:#E7DCA7"/>
				<stop offset="1" style="stop-color:#A18444"/>
			</linearGradient>
			<circle class="st30" cx="292.9" cy="299.9" r="6.3"/>
			
				<linearGradient id="SVGID_21_" gradientUnits="userSpaceOnUse" x1="292.9" y1="199.5778" x2="292.9" y2="184.9193" gradientTransform="matrix(1 0 0 -1 0 493)">
				<stop offset="0" style="stop-color:#A18444"/>
				<stop offset="0.3409" style="stop-color:#D2C088"/>
				<stop offset="0.5165" style="stop-color:#E7DCA7"/>
				<stop offset="1" style="stop-color:#A18444"/>
			</linearGradient>
			<path class="st31" d="M298.6,299.5c0,3.1-2.5,5.7-5.7,5.7c-3.1,0-5.7-2.5-5.7-5.7s2.5-5.7,5.7-5.7     C296,293.9,298.6,296.4,298.6,299.5z"/>
			<path class="st13" d="M297.1,296.8c0,0.8-0.6,1.4-1.4,1.4c-0.8,0-1.4-0.6-1.4-1.4s0.6-1.4,1.4-1.4     C296.5,295.3,297.1,296,297.1,296.8z"/>
		</g>
	</g>
</g>
<g>
	
		<radialGradient id="SVGID_22_" cx="-3770.8931" cy="-9746.0205" r="40.8696" gradientTransform="matrix(0.1598 0 0 -3.040000e-02 912.9887 -24.0109)" gradientUnits="userSpaceOnUse">
		<stop offset="0" style="stop-color:#221E1F"/>
		<stop offset="1" style="stop-color:#717375;stop-opacity:0"/>
	</radialGradient>
	<ellipse class="st32" cx="310.4" cy="272.3" rx="6.5" ry="1.2"/>
	<g>
		<path class="st10" d="M311,271.9c0.1,0.2,0,0.5-0.2,0.6l0,0c-0.2,0.1-0.5,0-0.6-0.2l0.1-14.2c-0.1-0.2,0-0.5,0.2-0.6l0,0    c0.2-0.1,0.5,0,0.6,0.2L311,271.9z"/>
		<g>
			
				<linearGradient id="SVGID_23_" gradientUnits="userSpaceOnUse" x1="304.3" y1="238.8" x2="316.9228" y2="238.8" gradientTransform="matrix(1 0 0 -1 0 493)">
				<stop offset="0" style="stop-color:#A18444"/>
				<stop offset="0.3409" style="stop-color:#D2C088"/>
				<stop offset="0.5165" style="stop-color:#E7DCA7"/>
				<stop offset="1" style="stop-color:#A18444"/>
			</linearGradient>
			<circle class="st33" cx="310.6" cy="254.2" r="6.3"/>
			
				<linearGradient id="SVGID_24_" gradientUnits="userSpaceOnUse" x1="310.6" y1="245.2427" x2="310.6" y2="230.5842" gradientTransform="matrix(1 0 0 -1 0 493)">
				<stop offset="0" style="stop-color:#A18444"/>
				<stop offset="0.3409" style="stop-color:#D2C088"/>
				<stop offset="0.5165" style="stop-color:#E7DCA7"/>
				<stop offset="1" style="stop-color:#A18444"/>
			</linearGradient>
			<path class="st34" d="M316.3,253.9c0,3.1-2.5,5.7-5.7,5.7c-3.1,0-5.7-2.5-5.7-5.7c0-3.1,2.5-5.7,5.7-5.7S316.3,250.7,316.3,253.9     z"/>
			<path class="st13" d="M314.8,251.1c0,0.8-0.6,1.4-1.4,1.4c-0.8,0-1.4-0.6-1.4-1.4c0-0.8,0.6-1.4,1.4-1.4     C314.2,249.6,314.8,250.3,314.8,251.1z"/>
		</g>
	</g>
</g>
<g>
	
		<radialGradient id="SVGID_25_" cx="-4413.8936" cy="-7452.7881" r="40.8302" gradientTransform="matrix(0.1598 0 0 -3.040000e-02 912.9887 -24.0109)" gradientUnits="userSpaceOnUse">
		<stop offset="0" style="stop-color:#221E1F"/>
		<stop offset="1" style="stop-color:#717375;stop-opacity:0"/>
	</radialGradient>
	<ellipse class="st35" cx="207.6" cy="202.6" rx="6.5" ry="1.2"/>
	<g>
		<path class="st10" d="M208.2,202.2c0.1,0.2,0,0.5-0.2,0.6l0,0c-0.2,0.1-0.5,0-0.6-0.2l0.1-14.2c-0.1-0.2,0-0.5,0.2-0.6l0,0    c0.2-0.1,0.5,0,0.6,0.2L208.2,202.2z"/>
		<g>
			
				<linearGradient id="SVGID_26_" gradientUnits="userSpaceOnUse" x1="201.5268" y1="308.5" x2="214.1495" y2="308.5" gradientTransform="matrix(1 0 0 -1 0 493)">
				<stop offset="0" style="stop-color:#A18444"/>
				<stop offset="0.3409" style="stop-color:#D2C088"/>
				<stop offset="0.5165" style="stop-color:#E7DCA7"/>
				<stop offset="1" style="stop-color:#A18444"/>
			</linearGradient>
			<circle class="st36" cx="207.8" cy="184.5" r="6.3"/>
			
				<linearGradient id="SVGID_27_" gradientUnits="userSpaceOnUse" x1="207.8" y1="314.957" x2="207.8" y2="300.2985" gradientTransform="matrix(1 0 0 -1 0 493)">
				<stop offset="0" style="stop-color:#A18444"/>
				<stop offset="0.3409" style="stop-color:#D2C088"/>
				<stop offset="0.5165" style="stop-color:#E7DCA7"/>
				<stop offset="1" style="stop-color:#A18444"/>
			</linearGradient>
			<path class="st37" d="M213.5,184.2c0,3.1-2.5,5.7-5.7,5.7c-3.1,0-5.7-2.5-5.7-5.7s2.5-5.7,5.7-5.7S213.5,181,213.5,184.2z"/>
			<path class="st13" d="M212.1,181.4c0,0.8-0.6,1.4-1.4,1.4c-0.8,0-1.4-0.6-1.4-1.4c0-0.8,0.6-1.4,1.4-1.4     C211.4,179.9,212.1,180.6,212.1,181.4z"/>
		</g>
	</g>
</g>
<g>
	
		<radialGradient id="SVGID_28_" cx="-4501.4424" cy="-7892.3945" r="40.8302" gradientTransform="matrix(0.1598 0 0 -3.040000e-02 912.9887 -24.0109)" gradientUnits="userSpaceOnUse">
		<stop offset="0" style="stop-color:#221E1F"/>
		<stop offset="1" style="stop-color:#717375;stop-opacity:0"/>
	</radialGradient>
	<ellipse class="st38" cx="193.7" cy="215.9" rx="6.5" ry="1.2"/>
	<g>
		<path class="st10" d="M194.2,215.6c0.1,0.2,0,0.5-0.2,0.6l0,0c-0.2,0.1-0.5,0-0.6-0.2l0.1-14.2c-0.1-0.2,0-0.5,0.2-0.6l0,0    c0.2-0.1,0.5,0,0.6,0.2L194.2,215.6z"/>
		<g>
			
				<linearGradient id="SVGID_29_" gradientUnits="userSpaceOnUse" x1="187.5366" y1="295.1" x2="200.1593" y2="295.1" gradientTransform="matrix(1 0 0 -1 0 493)">
				<stop offset="0" style="stop-color:#A18444"/>
				<stop offset="0.3409" style="stop-color:#D2C088"/>
				<stop offset="0.5165" style="stop-color:#E7DCA7"/>
				<stop offset="1" style="stop-color:#A18444"/>
			</linearGradient>
			<circle class="st39" cx="193.8" cy="197.9" r="6.3"/>
			
				<linearGradient id="SVGID_30_" gradientUnits="userSpaceOnUse" x1="193.8" y1="301.5929" x2="193.8" y2="286.9345" gradientTransform="matrix(1 0 0 -1 0 493)">
				<stop offset="0" style="stop-color:#A18444"/>
				<stop offset="0.3409" style="stop-color:#D2C088"/>
				<stop offset="0.5165" style="stop-color:#E7DCA7"/>
				<stop offset="1" style="stop-color:#A18444"/>
			</linearGradient>
			<path class="st40" d="M199.5,197.5c0,3.1-2.5,5.7-5.7,5.7c-3.1,0-5.7-2.5-5.7-5.7c0-3.1,2.5-5.7,5.7-5.7S199.5,194.4,199.5,197.5     z"/>
			<path class="st13" d="M198.1,194.7c0,0.8-0.6,1.4-1.4,1.4c-0.8,0-1.4-0.6-1.4-1.4c0-0.8,0.6-1.4,1.4-1.4     C197.4,193.3,198.1,193.9,198.1,194.7z"/>
		</g>
	</g>
</g>
<path class="st41" d="M296.1,321.8c0,0-63.7,55.9-145,77.2c0,0-111.5,21.1-113.5-49.6c0,0,3.6-50.6,74.8-47.9c0,0,3.6-21.5,36.5-11  c0,0-36.3-6.1-36.4-42.3c0,0-33.4-32.6-50.3-28c0,0,9.4-20.7,20.6-28.6c0,0-55.4,11.8-61.4-18.6c0,0-1.6-28.1,28-24.2  c0,0,11.1-65,71.3-35.6c0,0,51.4,24.4,80.3,83.7c0,0-14.5,5.3-7,19.4c0,0-21.2,60,111.3,49.6"/>
</svg>