<?xml version="1.0" encoding="UTF-8"?>
<svg id="Capa_1" data-name="Capa 1" xmlns="http://www.w3.org/2000/svg" viewBox="0 0 286.48 90.6">
  <defs>
    <style>
      .cls-1 {
        fill: #82ad56;
      }

      .cls-2 {
        fill-rule: evenodd;
      }

      .cls-2, .cls-3 {
        fill: #544529;
      }
    </style>
  </defs>
  <path class="cls-2" d="m4.46,41.11c.53-.91.9-1.98,1.62-2.7,3.14-3.12,6.39-6.13,9.59-9.18.32-.31.59-.72.97-.92,9.37-4.92,14.6-14.29,22.42-20.89,2.21-1.87,3.44-4.9,5.13-7.42,4.48,8.62,12.57,14.13,18.75,21.32,2.27,2.64,4.74,4.58,7.69,6.42,3.23,2.02,5.5,5.53,8.3,8.27,1.13,1.1,2.66,1.78,3.85,2.84.57.51.77,1.44,1.14,2.18-.22.12-.45.24-.67.36,1.58,1.25,3.16,2.5,5.44,4.31-1.04.64-1.8.96-2.38,1.5-1.14,1.04-3.15,1.36-2.69,3.81.12.63-1.74,1.58-2.63,2.45-.83.8-1.45,1.86-2.38,2.49-3.94,2.67-6.13,7.52-11.11,8.9-.65.18-1.36.52-1.82,1.01-5.39,5.67-10.82,11.3-16.05,17.12-2.06,2.29-3.65,5-5.55,7.64-.16-.14-.53-.3-.63-.56-1.77-4.83-5.82-7.82-9.13-11.41-3.92-4.25-7.81-8.52-11.71-12.79-.18-.2-.33-.54-.54-.58-4.06-.76-6.42-3.89-9.18-6.48-2.59-2.42-5.27-4.75-7.8-7.23-.33-.33-.05-1.29-.05-2.26-1.25-.93-2.94-2.19-5.07-3.77,1.91-1.52,3.47-2.77,5.03-4.01-.19-.13-.38-.26-.57-.4Zm-1.09,3.26c4.61,0,8.68.03,12.74,0,12.65-.11,20.44-5.7,24.6-17.67.82-2.37,1.5-4.79,2.25-7.18-1.31,12.02-5.69,21.93-19.31,25.94,6.62,1.96,11.3,5.07,14.47,10.13,3.08,4.9,4.73,10.27,5.02,16.04-.63-1.47-1.02-3.01-1.49-4.53-1.49-4.81-3.29-9.48-6.8-13.25-8.58-9.23-19.77-7.22-30.64-7.45.16.55.15.77.26.86.35.27.74.49,1.11.74,3.37,2.31,7.21,1.7,10.93,1.69,13.05-.04,22.43,7.99,24.52,20.91.19,1.17,1.01,2.23,1.58,3.41-.5.11-1.32.29-2.45.53,1.11.45,1.91.78,2.72,1.11-.04.16-.09.31-.13.47-2.18-.1-4.37-.21-6.56-.31,5.11,2.72,9.35,2.85,14.52.26h-5.93c-.02-.17-.04-.35-.06-.52.79-.31,1.59-.62,2.91-1.13-3.21.19-3.59-1.33-3.04-3.53.15-.6.17-1.24.28-1.85,2.03-10.7,6.5-19.52,17.73-23.18.19-.06.3-.33.58-.64-10.26-3.09-15.28-10.57-17.68-20.27-.43-1.73-.55-3.54-1.03-5.26-.21-.76-.97-1.37-1.48-2.05-.66.69-1.41,1.31-1.93,2.09-.32.48-.26,1.21-.38,1.82-2.06,10.25-8.12,16.79-18.33,19.03-3.35.73-6.93.41-10.41.5-3.13.08-5.8,1.16-8.6,3.3Zm41.89,28.3c.34.15.68.29,1.02.44.25-.86.61-1.7.73-2.57,1.43-11,9.42-19.27,20.38-20.75,3.07-.41,6.24-.16,9.36-.18,2.73-.02,4.94-1.18,6.97-2.76-4.56-.24-9.03-.43-13.48-.19-6.52.36-12.5,2.29-16.97,7.4-4.68,5.34-6.66,11.86-8.01,18.61Zm.7-54.84c-.24.12-.48.23-.72.35,1.02,5.04,2.41,9.97,5.01,14.49,3.46,6.01,8.57,9.93,15.44,10.9,4.84.68,9.79.57,14.7.8,1,.05,2.01,0,3.68,0-3.86-3.45-7.8-3.35-11.71-3.09-12.75.86-24.14-8.09-25.42-21.61-.06-.64-.64-1.23-.97-1.84ZM7.74,51.82c.71.54,1.22.98,1.78,1.33,3.2,2.06,6.8,1.84,10.38,1.83,9.5-.02,15.39,4.67,17.62,13.96.23.95.27,1.98.64,2.86.17.41.93.58,1.43.86.23-.42.63-.82.65-1.25.03-.6-.18-1.23-.35-1.83-4.28-15.77-17.27-20-32.15-17.76Zm.11-13.42c16.21,4.44,32.65-6.17,32.35-20.1-2.02-.59-2.09.86-2.36,2.2-2.23,10.71-8.16,15.59-18.89,15.6-1.43,0-2.92-.25-4.28.08-2.32.55-4.55,1.46-6.81,2.22Zm40.92-20.43c-.31.18-.61.37-.92.55.05.42.06.86.16,1.27,4.07,17.26,17.09,21.25,32.42,19.07-1.59-.78-2.8-1.74-4.13-1.95-2.88-.44-5.82-.6-8.74-.69-6.91-.22-12.26-3-15.31-9.38-.95-1.98-1.36-4.23-2.11-6.31-.33-.9-.9-1.71-1.36-2.56Zm31.48,34.7c-.09-.34-.19-.68-.28-1.02-18.4-1.51-33.56,8.44-31.36,20.99.73-.79,1.35-1.68,1.55-2.66,1.65-8.18,6.34-13.54,13.5-14.84,2.6-.47,5.37,0,7.99-.39,2.9-.43,5.73-1.37,8.59-2.09ZM37.06,18.95c-.27-.2-.55-.39-.83-.59-.54.85-1.33,1.64-1.57,2.57-1.71,6.63-5.86,9.93-12.71,9.95-1.07,0-2.22-.26-3.19.05-2,.62-3.9,1.55-5.85,2.35,12.73,3.27,23.64-3.6,24.15-14.33ZM13.39,57.02c1.9,2.5,2.97,2.89,7.97,2.91,7.56.04,11.63,3.21,13.31,10.52.36,1.57,1.01,2.11,2.53,1.58-1.8-11.72-12.11-18.16-23.82-15.01Zm61.57.72c-12.71-3.1-23.76,3.91-23.28,14.33.79-.7,1.49-1.52,1.73-2.46,1.45-5.73,5.4-9.32,11.02-9.76,1.51-.12,3.09.2,4.54-.12,2.04-.45,4-1.32,5.99-2Zm-.27-23.97c-2.15-2.31-4.5-2.82-7.22-2.79-8.47.12-11.71-2.34-14.2-10.36-.24-.77-1.04-1.36-1.58-2.03.47,11.27,10,17.37,23,15.18Zm-41.31-14.77c-1.19.75-2.93,1.22-3.48,2.3-1.57,3.09-4.14,4.49-7.21,5.45-1.39.43-2.69,1.16-4.03,1.75,8.52,1.51,13.74-1.77,14.72-9.49Zm.31,52.5c-.93-7.16-8.41-11.73-15.67-9.12,2.45.89,4.3,1.63,6.19,2.23,2.42.75,4.46,2,5.34,4.44.72,1.98,2.11,2.39,4.13,2.45Zm35.61-43.09c-1.62-.59-3.23-1.27-4.88-1.76-2.76-.83-4.91-2.19-6.25-4.94-.54-1.1-2.15-1.69-3.27-2.51,1.24,7.54,5.62,10.29,14.4,9.21Zm-14.33,43.38c1.07-.76,2.68-1.29,3.12-2.32,1.34-3.16,3.79-4.54,6.86-5.37,1.36-.37,2.65-.97,3.98-1.46-7.98-1.52-12.95,1.63-13.95,9.15Zm-4.54-57.05c-5.11-2.66-9.46-2.02-14.32.28h6.78c0,.12.01.25.02.38-1.13.33-2.26.66-4.09,1.2h8.48c-1.22-.69-1.84-1.04-2.45-1.39.04-.16.08-.31.11-.47h5.46Zm-1.07,64.16h-10.77c3.55,2.35,6.85,2.1,10.77,0Zm-1.1-66.96c-2.95-1.82-5.89-2.41-9.19,0h9.19Zm-1.05-2.74c-2.46-1.69-4.33-1.85-6.53,0h6.53Zm-1.06,73.74c0-.41,0-.83.01-1.24-1.74-.09-3.48-.19-5.22-.28-.02.36-.05.73-.07,1.09,1.76.14,3.52.29,5.28.43Zm-.4,1.32h-3.5c.63,1.26,1.09,2.17,1.76,3.5.68-1.37,1.09-2.2,1.74-3.5Zm-1.78-81.22c-.63,1.39-1.06,2.34-1.7,3.76,1.41-.12,2.27-.2,3.34-.3-.55-1.17-.92-1.95-1.64-3.47Z"/>
  <g>
    <g>
      <path class="cls-3" d="m106.01,15.22h3.26v18.39l19.87-18.39h4.4l-15.27,14.13,15.99,20.06h-4.21l-14.22-17.81-6.56,6.08v11.73h-3.26V15.22Z"/>
      <path class="cls-3" d="m136.71,15.22h3.26v21.16c-.05,7.95,3.73,10.96,10.01,10.96s10.1-3.02,10.06-10.96V15.22h3.26v21.88c0,7.04-3.78,13.02-13.31,13.02s-13.26-5.99-13.26-13.02V15.22Z"/>
      <path class="cls-3" d="m179.37,35.33l-13.46-20.11h3.88l11.25,17.33,11.2-17.33h3.88l-13.5,20.11v14.08h-3.26v-14.08Z"/>
      <path class="cls-3" d="m205.56,15.22h3.64l13.41,34.19h-3.5l-4.17-10.63h-15.56l-4.12,10.63h-3.5l13.79-34.19Zm-5.17,20.78h13.45l-6.61-17.52-6.85,17.52Z"/>
      <path class="cls-3" d="m225.67,15.22h3.64l19.92,28.92h.1V15.22h3.26v34.19h-3.64l-19.92-28.92h-.1v28.92h-3.26V15.22Z"/>
      <path class="cls-3" d="m269.44,15.22h3.64l13.41,34.19h-3.5l-4.17-10.63h-15.56l-4.12,10.63h-3.5l13.79-34.19Zm-5.17,20.78h13.45l-6.61-17.52-6.85,17.52Z"/>
    </g>
    <g>
      <path class="cls-1" d="m106.01,73.58h2.02v-15.79h-2.02v-1.88h4.37v17.67h2.02v1.88h-6.39v-1.88Z"/>
      <path class="cls-1" d="m121.58,69.54c0-3.76,2.32-6.22,6.03-6.22s6.03,2.46,6.03,6.22-2.32,6.22-6.03,6.22-6.03-2.43-6.03-6.22Zm9.62,0c0-2.57-1.24-4.4-3.59-4.4s-3.59,1.82-3.59,4.4,1.24,4.4,3.59,4.4,3.59-1.83,3.59-4.4Z"/>
      <path class="cls-1" d="m143.26,69.54c0-3.65,2.07-6.22,5.47-6.22,1.49,0,2.6.53,3.48,1.27v-6.8h-2.41v-1.88h4.76v17.67h2.02v1.88h-4.2v-1.49c-.88,1-2.13,1.8-3.93,1.8-3.23,0-5.2-2.68-5.2-6.22Zm8.96,2.96v-6.17c-.72-.61-1.66-1.16-2.93-1.16-2.43,0-3.59,1.8-3.59,4.34,0,2.32.97,4.4,3.37,4.4,1.38,0,2.38-.69,3.15-1.41Z"/>
      <path class="cls-1" d="m165.24,77.92c0-1.33.8-2.27,1.88-2.93-.53-.33-.86-.77-.86-1.47,0-.97.66-1.66,1.44-2.21-1.19-.83-1.71-2.18-1.71-3.54,0-2.29,1.55-4.45,4.89-4.45.75,0,1.44.11,2.02.3h4.56v1.88l-2.43-.11c.5.69.77,1.55.77,2.38,0,2.29-1.58,4.45-4.92,4.45-.77,0-1.44-.11-2.02-.3-.3.22-.53.5-.53.8,0,1.94,8.46-.14,8.46,4.67,0,2.13-1.71,3.87-6.03,3.87-4.01,0-5.53-1.52-5.53-3.35Zm9.23-.42c0-1.82-3.46-1.55-5.86-2.05-.77.53-1.27,1.24-1.27,2.05,0,1.3,1.3,1.99,3.48,1.99,2.79,0,3.65-1.11,3.65-1.99Zm-6.3-9.73c0,1.74,1.13,2.77,2.71,2.77s2.71-1,2.71-2.77-1.13-2.74-2.71-2.74-2.71,1-2.71,2.74Z"/>
      <path class="cls-1" d="m186.28,69.57c0-3.68,2.1-6.25,5.64-6.25s5.25,2.88,5.25,5.86c0,.33,0,.69-.06,1.05h-8.46c.22,2.32,1.55,3.68,3.98,3.68,1.52,0,2.85-.55,3.9-1.13v1.88c-1,.58-2.38,1.11-4.23,1.11-3.95,0-6.03-2.57-6.03-6.19Zm2.38-1.05h6.3c-.11-1.69-.86-3.43-3.01-3.43-2.02,0-3.07,1.52-3.29,3.43Z"/>
    </g>
  </g>
</svg>